<?xml version="1.0" encoding="utf-8"?>
<!-- Generator: Adobe Illustrator 21.0.2, SVG Export Plug-In . SVG Version: 6.00 Build 0)  -->
<svg version="1.1" id="Layer_1" xmlns="http://www.w3.org/2000/svg" xmlns:xlink="http://www.w3.org/1999/xlink" x="0px" y="0px"
	 viewBox="0 0 60 60" style="enable-background:new 0 0 60 60;" xml:space="preserve">
<style type="text/css">
	.st0{fill:#FFFFFF;}
</style>
<g>
	<g>
		<path class="st0" d="M47.1,9.1c0.1,0,0.3,0.2,0.3,0.4v41.1c0,0.2-0.1,0.4-0.3,0.4H17.2c-0.1,0-0.3-0.2-0.3-0.4V9.5
			c0-0.2,0.1-0.4,0.3-0.4H47.1 M47.1,6.1H17.2c-1.4,0-2.5,1.5-2.5,3.4v41.1c0,1.9,1.1,3.4,2.5,3.4h29.9c1.4,0,2.5-1.5,2.5-3.4V9.5
			C49.7,7.6,48.5,6.1,47.1,6.1L47.1,6.1z"/>
	</g>
	<polygon class="st0" points="38.5,7.7 48.3,18.6 48.3,8.6 	"/>
</g>
<path class="st0" d="M38.7,45h-25c-1.3,0-2.3-1-2.3-2.3V30.8c0-1.3,1-2.3,2.3-2.3h25c1.3,0,2.3,1,2.3,2.3v11.8C41,44,40,45,38.7,45z
	 M22.9,35.5c0-0.8-0.2-1.4-0.6-1.8c-0.4-0.4-1-0.6-1.7-0.6h-3.2v7.4h1.5v-2.6h1.5c0.8,0,1.4-0.2,1.8-0.5
	C22.7,36.9,22.9,36.3,22.9,35.5z M21.4,35.5c0,0.4-0.1,0.7-0.3,0.8c-0.2,0.2-0.5,0.3-0.8,0.3h-1.4v-2.2h1.4c0.4,0,0.6,0.1,0.8,0.2
	C21.3,34.8,21.4,35.1,21.4,35.5z M27.3,33.1h-3.2v7.4h3.2c1.1,0,1.9-0.5,2.5-1.4c0.4-0.7,0.6-1.5,0.6-2.5c0-0.4,0-0.8-0.1-1.2
	c-0.1-0.4-0.3-0.8-0.5-1.2c-0.3-0.5-0.7-0.8-1.3-0.9C28.2,33.2,27.8,33.1,27.3,33.1z M27.1,34.4c0.7,0,1.2,0.2,1.4,0.6
	c0.2,0.4,0.4,1,0.4,1.7c0,0.5-0.1,1-0.2,1.4c-0.3,0.7-0.8,1.1-1.5,1.1h-1.4v-4.8H27.1z M31.5,40.5h1.5v-3.1h3.3v-1.3h-3.3v-1.7h3.7
	v-1.3h-5.2V40.5z"/>
</svg>
