<?xml version="1.0" encoding="utf-8"?>
<!-- Generator: Adobe Illustrator 21.0.2, SVG Export Plug-In . SVG Version: 6.00 Build 0)  -->
<svg version="1.1" id="Layer_1" xmlns="http://www.w3.org/2000/svg" xmlns:xlink="http://www.w3.org/1999/xlink" x="0px" y="0px"
	 viewBox="0 0 127 127" style="enable-background:new 0 0 127 127;" xml:space="preserve">
<style type="text/css">
	.st0{clip-path:url(#XMLID_3_);}
	.st1{fill:#FFFFFF;}
	.st2{fill:#FF6400;}
	.st3{fill:#FF3300;}
	.st4{fill:#662E99;}
	.st5{fill:#209900;}
	.st6{fill:#0CCDF5;}
	.st7{fill:#FF2E00;}
	.st8{fill:#FF3600;}
	.st9{fill:#FFAC00;}
	.st10{fill:#009947;}
	.st11{fill:#D51569;}
	.st12{fill:#267C35;}
</style>
<g>
	<defs>
		<circle id="XMLID_1_" cx="62.5" cy="63" r="51.9"/>
	</defs>
	<clipPath id="XMLID_3_">
		<use xlink:href="#XMLID_1_"  style="overflow:visible;"/>
	</clipPath>
	<g id="GXUM5I.tif" class="st0">
		<g>
			<path class="st1" d="M116.2,118.2c-36.2,0-72.3,0-108.5,0c0-36.2,0-72.3,0-108.5c36.2,0,72.3,0,108.5,0
				C116.2,45.8,116.2,82,116.2,118.2z M115.7,58.4C115.7,58.4,115.8,58.4,115.7,58.4c-0.1-0.9-0.2-1.8-0.3-2.6
				c-0.5-2.2-0.9-4.3-1.5-6.4c-1-3.7-2.5-7.2-4.2-10.5c-3.2-6-7.3-11.2-12.5-15.6c-5.3-4.6-11.3-8-17.9-10.4c-4-1.4-8-2.4-12.2-2.8
				c-1.3-0.1-2.5-0.3-3.8-0.3c-2.4,0-4.9-0.1-7.3,0.2c-1.1,0.2-2.2,0.2-3.3,0.4c-1.5,0.2-3,0.5-4.4,0.9c-4.6,1.1-9,2.8-13.1,5.1
				c-5.2,2.9-9.8,6.5-13.8,10.9c-3.1,3.4-5.5,7.3-7.5,11.4C12,42.3,10.6,46.1,9.5,50c-0.2,0.7-0.7,1.4-0.5,2.2
				c0.1,0.4-0.2,0.9-0.2,1.4c-0.2,1.2-0.4,2.4-0.5,3.7C8.1,58.5,8,59.6,8,60.8c0,2.2-0.1,4.4,0,6.6c0.1,1.3,0.3,2.7,0.5,4
				C8.8,72.9,9,74.5,9.4,76c0.7,3.1,1.8,6.2,3.1,9.1c2.2,5,5.1,9.5,8.6,13.6c2.1,2.5,4.5,4.8,7,6.8c3.3,2.6,6.7,4.9,10.5,6.8
				c3.8,1.8,7.7,3.2,11.8,4.1c1.4,0.3,2.8,0.6,4.2,0.8c1.1,0.2,2.2,0.3,3.3,0.3c1.3,0.1,2.7,0.2,4.1,0.2c1.3,0,2.5-0.1,3.8-0.2
				c1.1-0.1,2.2-0.1,3.3-0.3c1.4-0.2,2.9-0.5,4.3-0.7c4.3-0.8,8.3-2.2,12.3-4.1c7.5-3.6,13.8-8.6,19-15.1c3.8-4.8,6.7-10.2,8.7-16
				c1.3-3.8,2.1-7.7,2.5-11.7c0.1-1.4,0.2-2.8,0.3-4.2c0-0.5,0-1,0-1.5c0-1,0-2-0.1-2.9C115.9,60.2,115.8,59.3,115.7,58.4z"/>
			<path d="M115.7,58.4c0.1,0.9,0.2,1.8,0.3,2.7c0.1,1,0.1,2,0.1,2.9c0,0.5,0,1,0,1.5c-0.1,1.4-0.1,2.8-0.3,4.2
				c-0.4,4-1.2,7.9-2.5,11.7c-2,5.8-4.9,11.2-8.7,16c-5.2,6.5-11.5,11.6-19,15.1c-3.9,1.8-8,3.3-12.3,4.1c-1.4,0.3-2.9,0.5-4.3,0.7
				c-1.1,0.1-2.2,0.2-3.3,0.3c-1.3,0.1-2.5,0.2-3.8,0.2c-1.4,0-2.7-0.1-4.1-0.2c-1.1-0.1-2.2-0.2-3.3-0.3c-1.4-0.2-2.8-0.5-4.2-0.8
				c-4.1-0.9-8-2.3-11.8-4.1c-3.8-1.8-7.2-4.2-10.5-6.8c-2.6-2-4.9-4.3-7-6.8c-3.5-4.1-6.4-8.7-8.6-13.6c-1.3-2.9-2.4-6-3.1-9.1
				c-0.3-1.5-0.6-3.1-0.9-4.7c-0.2-1.3-0.4-2.7-0.5-4C7.9,65.2,8,63,8,60.8c0-1.2,0.1-2.3,0.3-3.5c0.1-1.2,0.3-2.5,0.5-3.7
				c0.1-0.5,0.3-0.9,0.2-1.4c-0.2-0.9,0.3-1.5,0.5-2.2c1-3.9,2.4-7.7,4.3-11.4c2.1-4.1,4.4-8,7.5-11.4c4-4.4,8.6-8,13.8-10.9
				c4.1-2.3,8.5-4,13.1-5.1c1.5-0.4,2.9-0.6,4.4-0.9c1.1-0.2,2.2-0.3,3.3-0.4c2.4-0.3,4.9-0.3,7.3-0.2c1.3,0,2.5,0.2,3.8,0.3
				c4.2,0.4,8.2,1.4,12.2,2.8c6.6,2.3,12.6,5.8,17.9,10.4c5.1,4.4,9.3,9.7,12.5,15.6c1.8,3.4,3.2,6.9,4.2,10.5
				c0.6,2.1,1,4.3,1.5,6.4C115.6,56.7,115.6,57.5,115.7,58.4C115.8,58.4,115.7,58.4,115.7,58.4z M41.8,112.6
				c0.3,0.1,0.5,0.2,0.7,0.3c8.1,3.3,16.6,4.4,25.3,3.6c6.1-0.6,11.9-2.2,17.5-4.8c3.7-1.8,7.2-3.9,10.4-6.5
				c0.4-0.3,0.7-0.7,0.8-1.2c0.5-2.1,1.1-4.2,1.6-6.2c0.9-3.6,1.5-7.2,2-10.9c0-0.3,0-0.5-0.3-0.5c-0.5-0.2-1-0.3-1.5-0.5
				c-5.3-1.9-10.8-3.2-16.4-3.8c-0.3,0-0.6-0.1-0.8,0.3c-3.8,7-8.9,12.9-15.2,17.9c-7,5.5-14.8,9.5-23.3,12.2
				C42.3,112.5,42.1,112.5,41.8,112.6z M13.9,40.5c0.2,0,0.2,0,0.3,0c1.5,0,3.1-0.1,4.6-0.1c1.8,0,3.6,0.2,5.5,0.3
				c2.2,0.2,4.5,0.2,6.7,0.6c5.9,1.1,11.6,2.9,17,5.3c1.6,0.7,3.2,1.4,4.5,2.5c1.7,1.3,3.3,2.7,4.6,4.4c1.6,2.1,3.1,4.3,4.5,6.5
				c1.9,3,4.1,5.9,6.4,8.6c0.8,1,1.6,1.9,2.7,2.5c2.7,1.6,5.6,2.4,8.6,2.9c1.3,0.2,2.6-0.2,3.8-0.6c0.2,0,0.3-0.3,0.3-0.5
				c0.3-1,0.6-2,0.8-3.1c0.7-3,1.1-6.1,1.3-9.2c0-0.2,0-0.5-0.3-0.6c-2.1-1.2-4.3-2.5-6.4-3.8c-0.5-0.3-1.1-0.5-1.7-0.6
				c-1.1-0.2-2.3-0.4-3.4-0.6c-3.5-0.8-6.9-1.7-10.1-3.3c-4.7-2.4-8.7-5.6-12-9.8c-0.8-1-1.7-2-2.7-2.9c-0.7-0.7-1.5-1.3-2.3-2
				c-1.4-1.1-2.8-2.2-4.2-3.3c-1.9-1.4-3.9-2.4-6.1-3.1c-3.5-1.2-7-2.5-10.6-3.4c-0.5-0.1-0.9-0.2-1.4-0.3c-0.2,0-0.5,0.1-0.6,0.2
				c-2.7,2.8-5.2,5.8-7.4,9.1c-0.2,0.4-0.5,0.7-0.6,1.1c-0.2,0.7-0.7,1.3-1.1,2C14.3,39.7,14.1,40.1,13.9,40.5z M30.3,89.9
				c-0.3,0-0.5-0.1-0.7-0.1c-0.9-0.1-1.9-0.1-2.8-0.2c-1.5-0.1-2.9-0.5-4.3-1c-0.2-0.1-0.4,0-0.7,0c-0.2,0-0.4,0-0.5,0
				c-0.1-0.1-0.1-0.3-0.1-0.4c0-0.2,0.1-0.5,0.3-0.6c0.8-1.3,1.6-2.6,2.5-3.8c1.4-2,2.9-3.8,4.7-5.4c3.3-2.9,7.1-5,11.1-6.8
				c0.9-0.4,0.8-0.2,0.6-1.2c-1-3.6-1.9-7.2-2.9-10.8c-0.1-0.2-0.1-0.4-0.2-0.6c-0.2,0-0.3,0-0.4,0.1c-2,0.7-4,1.3-5.9,2.1
				c-5.9,2.5-11.3,5.7-16.1,10c-1.6,1.4-3.1,2.9-4.6,4.3c-0.2,0.2-0.3,0.3-0.2,0.6c1.2,4.5,2.8,8.8,5,12.9c2.1,3.8,4.7,7.3,7.6,10.6
				c0.5,0.6,1,1.1,1.6,1.7C25.9,97.1,28,93.5,30.3,89.9z M90.5,58.9c3-0.1,6-0.6,8.9-1.3c0.3-0.1,0.4-0.2,0.3-0.5
				c-0.7-5-1.9-10-3.5-14.8c-1.7-5.1-3.8-10.1-6.6-14.8c-2.6-4.4-5.5-8.5-9.1-12.2c-0.3-0.3-0.8-0.6-1.2-0.8
				c-2.4-0.9-4.8-1.6-7.2-2.1c-2.2-0.4-4.4-0.7-6.6-1c-0.3,0-0.4,0.1-0.5,0.3c-0.1,0.4,0.1,0.5,0.3,0.7c6.1,5.9,11.1,12.6,15,20.1
				c4.2,8,6.5,16.5,6.6,25.6c0,0.4,0.1,0.5,0.5,0.5C88.6,58.8,89.5,58.8,90.5,58.9z M64.6,14c0,0.1-0.1,0.1-0.1,0.1
				c-0.1,0.7-0.2,1.4-0.3,2.1c-0.4,5.6,0.3,11.1,2.1,16.4c1.4,4.2,3.3,8.2,5.7,12c2.4,3.8,5.1,7.2,8.4,10.2c1.4,1.2,2.9,2.2,4.6,2.9
				c0.1,0,0.2,0.1,0.3,0.1c0-0.2,0-0.4,0-0.5c-0.1-1.1-0.1-2.2-0.2-3.2c-0.7-7.4-2.9-14.3-6.2-20.9c-3.2-6.4-7.5-12-12.4-17.1
				C66,15.3,65.3,14.7,64.6,14z M101,57.1c0.1,0,0.2,0,0.3,0c0.1,0,0.2,0,0.3-0.1c3.9-1.2,7.7-2.7,11.3-4.5c0.4-0.2,0.5-0.4,0.4-0.8
				c-0.6-1.9-1.1-3.8-1.8-5.6c-3.7-9.5-9.5-17.3-17.5-23.6c-3.3-2.6-6.9-4.7-10.7-6.5c-0.2-0.1-0.4-0.1-0.6-0.2
				c0.1,0.2,0.1,0.2,0.1,0.2c0.1,0.1,0.2,0.3,0.4,0.4c2.7,2.8,5,6,7,9.3c5.3,8.8,8.4,18.4,10.3,28.5C100.7,55.2,100.8,56.1,101,57.1
				z M9.8,74c0.1,0,0.1,0,0.2,0.1c0.1-0.1,0.2-0.3,0.3-0.4c2.6-2.8,5.5-5.3,8.6-7.6c6.3-4.6,13.3-7.8,20.9-9.5
				c2.8-0.6,5.6-1.1,8.4-1.2c2.1-0.1,4.2,0,6.4,0.1c0.7,0,1.3,0.2,2.1,0.3c-0.1-0.2-0.2-0.3-0.3-0.4c-1-1.4-2.2-2.5-3.5-3.7
				c-0.8-0.7-1.5-1.3-2.6-1.2c-0.1,0-0.1,0-0.2,0c-2.4-0.3-4.9-0.7-7.3-0.6c-2.2,0.1-4.4,0.2-6.6,0.4c-2.9,0.2-5.8,0.7-8.6,1.6
				c-6.6,2.2-12.8,5.3-18.5,9.2c-0.3,0.2-0.4,0.4-0.4,0.8c-0.1,3.1,0.2,6.1,0.6,9.1C9.4,72.1,9.6,73,9.8,74z M56.7,104.8
				c-0.1-0.1-0.1-0.2-0.1-0.3c-0.5-0.6-1-1.2-1.4-1.9c-1.1-1.8-2.2-3.6-3.3-5.4c-1.4-2.4-2.7-4.8-4-7.2c-0.1-0.2-0.3-0.3-0.5-0.3
				c-0.9,0.1-1.9,0.2-2.8,0.3C42.6,90,40.5,90,38.4,90c-0.6,0-0.9,0.2-1.1,0.7c-1.1,2.3-2.3,4.6-3.4,6.9c-1.2,2.7-2.2,5.5-3,8.3
				c-0.1,0.3,0,0.5,0.3,0.8c2.9,2,5.9,3.7,9,5.1c0.2,0.1,0.5,0.1,0.8,0c4.7-1.6,9.3-3.5,13.7-5.9C55.3,105.6,56,105.2,56.7,104.8z
				 M115,64.4C115,64.4,115,64.4,115,64.4c-0.1-0.8-0.1-1.5-0.2-2.3c-0.1-2.7-0.5-5.3-1-7.9c-0.1-0.4-0.2-0.4-0.5-0.2
				c-1.2,0.6-2.4,1.2-3.7,1.7c-2.6,1.2-5.3,2.1-8,2.9c-0.3,0.1-0.4,0.2-0.4,0.5c0.3,2.7,0.6,5.5,0.7,8.2c0.2,4,0.2,7.9,0,11.9
				c-0.1,1-0.1,2-0.2,2.9c-0.1,1-0.2,2-0.3,3c0,0.3,0.1,0.4,0.4,0.5c2.4,0.7,4.6,1.6,6.8,2.7c0.5,0.3,0.5,0.3,0.8-0.3
				c2.6-5.5,4.5-11.2,5.1-17.2C114.7,68.7,114.8,66.6,115,64.4z M44.7,14c-0.1,0-0.2,0-0.2,0c-1.8,0.7-3.6,1.4-5.3,2.1
				c-0.1,0.1-0.3,0.3-0.3,0.4c-0.5,2-0.9,4.1-1,6.2c-0.1,2.1-0.2,4.2-0.3,6.3c0,0.3,0.1,0.4,0.4,0.5c1.3,0.6,2.6,1.1,3.8,1.8
				c1.6,1,3,2.2,4.5,3.3c2.5,1.9,4.9,3.9,6.8,6.4c3,3.9,6.7,6.8,11,9.1c3.2,1.7,6.7,2.6,10.2,3.5c0.1,0,0.2,0,0.3,0
				c-0.4-0.4-0.7-0.6-1.1-0.9c-5-3.7-9.5-7.9-13.6-12.5c-3.9-4.4-7.6-9.1-10.4-14.4c-1.8-3.4-3.5-6.8-4.4-10.6
				C44.9,14.8,44.8,14.4,44.7,14z M48.9,89.4c0.1,0.2,0.2,0.4,0.2,0.5c0.5,0.8,1,1.6,1.4,2.4c1.2,2.2,2.3,4.4,3.6,6.6
				c1,1.7,1.9,3.4,3.4,4.8c0.3,0.3,0.5,0.3,0.9,0.1c3.9-2.5,7.5-5.2,10.9-8.4c4.1-3.9,7.5-8.2,10.2-13.2c0.1-0.1,0.1-0.3,0.2-0.5
				c-0.1,0-0.2-0.1-0.3-0.1c-2.6-0.1-5.2-0.3-7.8-0.4c-0.3,0-0.7,0.1-0.9,0.2c-1.5,0.8-2.9,1.7-4.4,2.5c-4.3,2.4-8.9,3.9-13.7,4.7
				C51.4,89,50.2,89.2,48.9,89.4z M8.7,59.9c0.1-0.1,0.2-0.1,0.2-0.1c3.5-2.5,7.3-4.6,11.2-6.4c3.1-1.4,6.1-2.7,9.4-3.6
				c2.2-0.6,4.4-1,6.6-1.2c1.6-0.2,3.1-0.2,4.7-0.4c1.9-0.2,3.8-0.2,5.8,0.1c0.5,0.1,1,0.1,1.5,0.1c0,0,0-0.1,0-0.1
				c-0.1-0.1-0.3-0.1-0.4-0.2c-3.8-1.7-7.7-3.1-11.7-4.2c-2.8-0.8-5.6-1.4-8.5-1.6c-2.5-0.2-4.9-0.2-7.4-0.4
				c-2.1-0.1-4.2-0.3-6.3,0.1c-0.1,0-0.3,0-0.4,0c-0.3-0.1-0.4,0-0.4,0.2c-0.2,0.4-0.3,0.9-0.5,1.3c-0.7,2.2-1.4,4.5-2.1,6.7
				c-0.1,0.3,0,0.6-0.1,0.9c0,0.2-0.1,0.4-0.2,0.6c-0.1,0.2-0.3,0.5-0.3,0.7C9.5,54,9.2,55.5,9,56.9C8.9,57.9,8.8,58.9,8.7,59.9z
				 M66.9,70.1c0,0,0.1-0.1,0.1-0.1c-3.7-4-6.5-8.6-9.5-13c-0.4,0.1-0.7,0.3-1.1,0.3c-0.8,0-1.5-0.1-2.3-0.2
				c-5.2-0.4-10.3,0.1-15.3,1.4c-0.5,0.1-0.5,0.1-0.4,0.7c0.4,1.4,0.7,2.7,1.1,4.1c0.7,2.4,1.4,4.7,2.1,7.1c0.1,0.3,0.2,0.4,0.6,0.3
				c2.2-0.9,4.4-1.5,6.8-1.7c2.2-0.2,4.5-0.5,6.7-0.5c3.4,0,6.7,0.4,9.9,1.3C66.1,69.9,66.5,70,66.9,70.1z M76.9,75.3
				C76.9,75.3,76.9,75.3,76.9,75.3c-0.2-0.1-0.4-0.2-0.5-0.2c-1.8-0.5-3.6-1-5.3-1.8c-0.8-0.4-1.6-0.7-2.4-1c-3.2-1-6.5-1.9-9.9-2.1
				c-0.4,0-0.8-0.2-1,0.3c-0.1,0.1-0.3,0.1-0.4,0.2c-0.4,0.2-0.9,0.3-1.3,0.5C54.6,72.1,53,73,51.5,74c-4.1,2.7-7.6,6.1-10.3,10.3
				c-0.1,0.1-0.2,0.3-0.3,0.5c0.5-0.1,0.9-0.3,1.2-0.4c4-0.9,8-1.9,12-2.8c5.3-1.2,10.7-1.9,16.2-1.9c0.3,0,0.5-0.1,0.8-0.2
				c1.9-1.1,3.7-2.4,5.5-3.9C76.7,75.6,76.8,75.5,76.9,75.3z M101,70.1c0-1-0.1-1.2-1.2-1.4c-0.1,0-0.2,0-0.3,0c-1.2,0-2.5,0-3.7,0
				c-0.3,0-0.6,0-0.9,0.1c-1.1,0.3-2.1,0.8-3,1.4c-2.3,1.5-4.5,3.1-7.1,4.2c-0.2,0.1-0.3,0.3-0.4,0.5c-0.7,1.7-1.4,3.5-2.2,5.2
				c-0.1,0.3-0.1,0.4,0.2,0.5c3,0.4,5.9,0.9,8.7,1.7c2.9,0.8,5.8,1.8,8.7,2.6c0.6,0.2,0.6,0.2,0.6-0.4c0-0.4,0.1-0.8,0.1-1.2
				c0.2-2.5,0.4-5.1,0.5-7.6C101,73.9,101,72,101,70.1z M74.5,50.9c0-0.1,0-0.1,0-0.1c-0.1-0.1-0.1-0.2-0.2-0.3
				c-2.2-2.8-4.1-5.8-5.7-9c-2.4-4.8-4.1-9.9-5.1-15.2c-0.8-4.3-0.9-8.6,0.2-12.9c0-0.1,0-0.4-0.1-0.5c-0.5-0.5-0.9-0.9-1.4-1.3
				c-0.2-0.1-0.4-0.3-0.7-0.3c-1.9,0.1-3.7,0.2-5.6,0.3c-0.1,0-0.3,0.2-0.3,0.3c-0.2,0.7-0.3,1.4-0.4,2.2c-0.4,2.6-0.1,5.3,0.5,7.9
				c0.8,3.8,2.2,7.3,4.1,10.7c3.7,6.8,8.5,12.8,14.4,17.9C74.1,50.6,74.3,50.8,74.5,50.9z M54.2,70.2c0,0,0-0.1,0-0.1
				c-0.9,0.1-1.8,0.1-2.6,0.2c-2.1,0.2-4.2,0.3-6.2,1c-4.5,1.4-8.7,3.5-12.6,6.2c-2.3,1.6-4.4,3.4-6,5.6c-0.7,0.9-1.3,1.7-2,2.6
				c-0.4,0.5-0.8,1-1.1,1.5c0.1,0.1,0.2,0.1,0.3,0.1c0.8,0.2,1.7,0.5,2.5,0.6c1.6,0.2,3.2,0.3,4.8,0.4c0.2,0,0.4-0.1,0.5-0.3
				c3.1-4.2,6.9-7.8,11.2-10.8c3.2-2.2,6.6-4.2,9.9-6.3C53.2,70.7,53.7,70.5,54.2,70.2z M63.8,42.1C63.8,42.1,63.8,42.1,63.8,42.1
				c0-0.2-0.1-0.4-0.2-0.5c-2.3-3.1-4.3-6.4-6-10c-2-4.2-3.4-8.6-3.6-13.3c-0.1-1.3,0.1-2.7,0.2-4.1c0.1-0.9,0.3-1.7,0.5-2.6
				c-0.1,0-0.3,0-0.4,0c-2.8,0.4-5.5,0.9-8.1,1.7c-0.5,0.2-0.5,0.2-0.4,0.7c1.1,3.9,2.9,7.5,5,11c3.2,5.3,6.8,10.2,11,14.7
				C62.4,40.7,63.1,41.4,63.8,42.1z M38.7,88.3c0,0,0,0.1,0.1,0.1c2.4-0.1,4.8,0,7.2-0.2c2.8-0.3,5.6-0.8,8.3-1.3
				c1.8-0.4,3.6-0.9,5.4-1.5c2.7-0.9,5.3-2.3,7.8-3.7c0.1-0.1,0.2-0.1,0.3-0.2c-0.1-0.1-0.2-0.1-0.4-0.1c-2.1,0.2-4.2,0.3-6.2,0.6
				c-3.4,0.6-6.8,1.2-10.2,1.9c-3.6,0.7-7.1,1.6-10.6,2.7C39.4,86.9,39.1,87.6,38.7,88.3z M99,67.3c0,0,0-0.1,0.1-0.1
				c-0.2-0.3-0.5-0.6-0.7-0.9c-0.5-0.5-1-1-1.5-1.5c-1.4-1.4-2.9-2.6-4.7-3.3c-1.4-0.6-2.9-1.1-4.5-1.3c-0.5-0.1-0.5-0.1-0.6,0.4
				c-0.1,3.9-0.7,7.7-1.8,11.5c0,0.1-0.1,0.3-0.1,0.5c0.8-0.4,1.4-0.7,2-1.1c1.4-0.9,2.7-1.8,4-2.6c1-0.6,2.1-1.2,3.3-1.3
				c1.3-0.1,2.5-0.2,3.8-0.3C98.5,67.2,98.8,67.2,99,67.3z M37.6,16.9c-2.3,0.6-11.4,7.1-12.6,8.8c3.9,1.1,7.7,2.2,11.6,3.3
				C36.6,25,36.7,21,37.6,16.9z M98,103.1c0.2,0,0.2,0,0.2,0c0.1,0,0.1-0.1,0.2-0.1c4-3.7,7.3-7.9,9.9-12.6c0.2-0.3,0.1-0.4-0.2-0.6
				c-1.9-1-3.8-1.8-5.8-2.5c-0.3-0.1-0.6-0.2-1-0.4C100.6,92.4,99.6,97.7,98,103.1z M29.3,105.4c1.5-5.3,3.8-10.4,6.4-15.3
				c-0.2,0-0.4,0-0.5,0c-0.8,0-1.6,0-2.5,0c-0.3,0-0.6,0.1-0.7,0.4c-2.4,3.6-4.6,7.4-6.1,11.5c-0.1,0.3-0.1,0.4,0.1,0.6
				c0.9,0.8,1.9,1.6,2.8,2.5C29,105.1,29.1,105.2,29.3,105.4z M99.9,59.3c-1.2,0.3-2.3,0.6-3.3,0.8c-0.8,0.2-1.6,0.3-2.3,0.4
				c-0.2,0-0.3,0.2-0.5,0.3c0.1,0.1,0.2,0.3,0.3,0.4c0.4,0.3,0.8,0.6,1.2,1c1.5,1.3,3.1,2.6,4.6,3.9c0.2,0.2,0.4,0.3,0.7,0.4
				c0,0,0.1-0.1,0.1-0.1C100.5,64,100.3,61.6,99.9,59.3z M73.6,79.7c0.1,0,0.2,0.1,0.2,0.1c2.1,0.2,4.2,0.3,6.3,0.5
				c0.3,0,0.4-0.1,0.5-0.3c0.6-1.4,1.2-2.8,1.8-4.2c0.1-0.1,0.1-0.3,0.1-0.5c-0.3,0.1-0.5,0.1-0.7,0.1c-0.7,0.1-1.3,0.3-2,0.3
				c-1-0.1-1.6,0.2-2.3,0.9c-1.1,1-2.3,1.9-3.5,2.8C74,79.5,73.8,79.6,73.6,79.7z M33.3,88.5c0.3,0,0.5,0.1,0.8,0.1
				c0.8,0,1.7,0,2.5-0.1c0.1,0,0.3-0.1,0.4-0.3c0.6-1,1.3-2,1.9-3c1.2-1.9,2.5-3.8,3.9-5.5c0.2-0.2,0.5-0.4,0.3-0.8
				c-0.1,0.1-0.3,0.1-0.4,0.2c-1.6,1.3-3.2,2.6-4.7,4c-1.6,1.5-3.1,3-4.4,4.7C33.5,88.1,33.4,88.3,33.3,88.5z"/>
			<path class="st2" d="M41.8,112.6c0.3-0.1,0.5-0.2,0.7-0.2c8.5-2.7,16.3-6.7,23.3-12.2c6.3-4.9,11.4-10.8,15.2-17.9
				c0.2-0.4,0.5-0.3,0.8-0.3c5.6,0.6,11.1,1.9,16.4,3.8c0.5,0.2,1,0.4,1.5,0.5c0.3,0.1,0.4,0.2,0.3,0.5c-0.5,3.7-1.1,7.3-2,10.9
				c-0.5,2.1-1.1,4.2-1.6,6.2c-0.1,0.5-0.4,0.9-0.8,1.2c-3.2,2.6-6.7,4.7-10.4,6.5c-5.5,2.7-11.4,4.3-17.5,4.8
				c-8.7,0.8-17.2-0.3-25.3-3.6C42.3,112.9,42.1,112.8,41.8,112.6z"/>
			<path class="st1" d="M13.9,40.5c0.2-0.5,0.4-0.9,0.7-1.3c0.4-0.6,0.9-1.2,1.1-2c0.1-0.4,0.4-0.8,0.6-1.1c2.2-3.2,4.7-6.3,7.4-9.1
				c0.1-0.1,0.4-0.2,0.6-0.2c0.5,0.1,1,0.2,1.4,0.3c3.6,0.9,7.1,2.2,10.6,3.4c2.2,0.7,4.3,1.7,6.1,3.1c1.4,1.1,2.8,2.2,4.2,3.3
				c0.8,0.6,1.6,1.3,2.3,2c0.9,0.9,1.9,1.9,2.7,2.9c3.3,4.2,7.3,7.4,12,9.8c3.2,1.6,6.6,2.6,10.1,3.3c1.1,0.3,2.3,0.4,3.4,0.6
				c0.6,0.1,1.2,0.3,1.7,0.6c2.1,1.2,4.3,2.5,6.4,3.8c0.3,0.2,0.3,0.4,0.3,0.6c-0.1,3.1-0.5,6.2-1.3,9.2c-0.2,1-0.5,2-0.8,3.1
				c-0.1,0.2-0.2,0.4-0.3,0.5c-1.2,0.4-2.5,0.9-3.8,0.6c-3-0.5-5.9-1.3-8.6-2.9c-1.1-0.7-1.9-1.6-2.7-2.5c-2.3-2.8-4.5-5.6-6.4-8.6
				c-1.4-2.2-2.9-4.4-4.5-6.5c-1.3-1.7-2.9-3-4.6-4.4c-1.4-1.1-2.9-1.8-4.5-2.5c-5.5-2.4-11.1-4.2-17-5.3c-2.2-0.4-4.4-0.4-6.7-0.6
				c-1.8-0.1-3.6-0.3-5.5-0.3c-1.5,0-3,0.1-4.6,0.1C14.1,40.5,14,40.5,13.9,40.5z"/>
			<path class="st3" d="M30.3,89.9c-2.3,3.6-4.4,7.2-5.9,11.2c-0.6-0.6-1.1-1.1-1.6-1.7c-2.9-3.2-5.5-6.7-7.6-10.6
				c-2.2-4.1-3.9-8.4-5-12.9c-0.1-0.3,0-0.5,0.2-0.6c1.5-1.5,3-3,4.6-4.3c4.8-4.2,10.2-7.5,16.1-10c1.9-0.8,3.9-1.4,5.9-2.1
				c0.1,0,0.3-0.1,0.4-0.1c0.1,0.2,0.1,0.4,0.2,0.6c1,3.6,1.9,7.2,2.9,10.8c0.3,1,0.3,0.8-0.6,1.2c-4,1.8-7.8,3.9-11.1,6.8
				c-1.8,1.6-3.4,3.4-4.7,5.4c-0.9,1.2-1.7,2.5-2.5,3.8c-0.1,0.2-0.2,0.4-0.3,0.6c0,0.1,0,0.4,0.1,0.4c0.1,0.1,0.3,0,0.5,0
				c0.2,0,0.5-0.1,0.7,0c1.4,0.5,2.8,0.9,4.3,1c0.9,0.1,1.9,0.1,2.8,0.2C29.9,89.9,30.1,89.9,30.3,89.9z"/>
			<path class="st2" d="M90.5,58.9c-1-0.1-2-0.2-2.9-0.2c-0.4,0-0.5-0.2-0.5-0.5c-0.1-9.1-2.4-17.6-6.6-25.6
				c-3.9-7.5-8.9-14.2-15-20.1c-0.2-0.2-0.4-0.3-0.3-0.7c0.1-0.3,0.2-0.4,0.5-0.3c2.2,0.3,4.4,0.6,6.6,1c2.5,0.4,4.9,1.2,7.2,2.1
				c0.4,0.2,0.9,0.4,1.2,0.8c3.6,3.7,6.5,7.8,9.1,12.2c2.7,4.7,4.8,9.7,6.6,14.8c1.6,4.8,2.8,9.8,3.5,14.8c0,0.3,0,0.4-0.3,0.5
				C96.5,58.3,93.5,58.8,90.5,58.9z"/>
			<path class="st1" d="M64.6,14c0.7,0.7,1.4,1.3,2,2c4.9,5.2,9.2,10.7,12.4,17.1c3.3,6.6,5.5,13.5,6.2,20.9
				c0.1,1.1,0.1,2.2,0.2,3.2c0,0.2,0,0.3,0,0.5c-0.1,0-0.3-0.1-0.3-0.1c-1.7-0.7-3.2-1.6-4.6-2.9c-3.3-3-6.1-6.4-8.4-10.2
				c-2.3-3.8-4.3-7.8-5.7-12c-1.8-5.3-2.5-10.8-2.1-16.4c0-0.7,0.2-1.4,0.3-2.1C64.6,14.1,64.6,14.1,64.6,14z"/>
			<path class="st4" d="M101,57.1c-0.2-1-0.3-1.9-0.5-2.9c-1.8-10.1-4.9-19.7-10.3-28.5c-2-3.3-4.3-6.5-7-9.3
				c-0.1-0.1-0.2-0.3-0.4-0.4c0,0,0-0.1-0.1-0.2c0.3,0.1,0.4,0.1,0.6,0.2c3.8,1.7,7.4,3.9,10.7,6.5c8,6.3,13.8,14.1,17.5,23.6
				c0.7,1.8,1.2,3.7,1.8,5.6c0.1,0.4,0,0.6-0.4,0.8c-3.6,1.8-7.4,3.4-11.3,4.5c-0.1,0-0.2,0.1-0.3,0.1
				C101.2,57.1,101.1,57.1,101,57.1z"/>
			<path class="st5" d="M9.8,74c-0.2-1-0.4-2-0.5-2.9c-0.4-3-0.7-6.1-0.6-9.1c0-0.4,0.1-0.6,0.4-0.8c5.7-4,11.9-7,18.5-9.2
				c2.8-0.9,5.6-1.4,8.6-1.6c2.2-0.2,4.4-0.3,6.6-0.4c2.5-0.1,4.9,0.3,7.3,0.6c0.1,0,0.1,0,0.2,0c1.1-0.1,1.9,0.5,2.6,1.2
				c1.2,1.2,2.5,2.3,3.5,3.7c0.1,0.1,0.2,0.2,0.3,0.4c-0.7-0.1-1.4-0.2-2.1-0.3c-2.1-0.1-4.2-0.2-6.4-0.1c-2.8,0.1-5.7,0.5-8.4,1.2
				c-7.6,1.7-14.6,5-20.9,9.5c-3.1,2.3-6,4.8-8.6,7.6c-0.1,0.1-0.2,0.3-0.3,0.4C9.9,74.1,9.9,74,9.8,74z"/>
			<path class="st6" d="M56.7,104.8c-0.7,0.4-1.4,0.8-2.1,1.2c-4.4,2.4-9,4.3-13.7,5.9c-0.2,0.1-0.5,0.1-0.8,0
				c-3.1-1.5-6.2-3.2-9-5.1c-0.3-0.2-0.4-0.4-0.3-0.8c0.8-2.9,1.8-5.6,3-8.3c1.1-2.3,2.3-4.6,3.4-6.9c0.2-0.5,0.5-0.7,1.1-0.7
				c2.1,0,4.2,0,6.3-0.1c0.9,0,1.9-0.2,2.8-0.3c0.3,0,0.4,0,0.5,0.3c1.3,2.4,2.6,4.9,4,7.2c1,1.8,2.1,3.6,3.3,5.4
				c0.4,0.7,0.9,1.3,1.4,1.9C56.6,104.6,56.7,104.7,56.7,104.8z"/>
			<path class="st7" d="M115,64.4c-0.2,2.2-0.3,4.3-0.5,6.5c-0.6,6.1-2.4,11.8-5.1,17.2c-0.3,0.5-0.3,0.5-0.8,0.3
				c-2.2-1.1-4.4-2.1-6.8-2.7c-0.3-0.1-0.4-0.2-0.4-0.5c0.1-1,0.2-2,0.3-3c0.1-1,0.2-2,0.2-2.9c0.2-4,0.2-7.9,0-11.9
				c-0.1-2.7-0.5-5.5-0.7-8.2c0-0.3,0.1-0.4,0.4-0.5c2.7-0.8,5.4-1.7,8-2.9c1.2-0.6,2.5-1.1,3.7-1.7c0.3-0.2,0.5-0.1,0.5,0.2
				c0.5,2.6,0.9,5.2,1,7.9C114.9,62.9,114.9,63.7,115,64.4C115,64.4,115,64.4,115,64.4z"/>
			<path class="st4" d="M44.7,14c0.1,0.4,0.2,0.8,0.3,1.2c0.9,3.7,2.6,7.2,4.4,10.6c2.9,5.2,6.5,9.9,10.4,14.4
				c4.1,4.6,8.6,8.8,13.6,12.5c0.4,0.3,0.8,0.6,1.1,0.9c-0.1,0-0.2,0-0.3,0c-3.5-0.8-7-1.8-10.2-3.5c-4.3-2.3-8-5.2-11-9.1
				c-1.9-2.5-4.3-4.6-6.8-6.4c-1.5-1.1-2.9-2.3-4.5-3.3c-1.2-0.7-2.5-1.2-3.8-1.8c-0.2-0.1-0.4-0.2-0.4-0.5c0.1-2.1,0.1-4.2,0.3-6.3
				c0.1-2.1,0.5-4.1,1-6.2c0-0.2,0.2-0.4,0.3-0.4c1.8-0.7,3.6-1.4,5.3-2.1C44.5,14,44.6,14,44.7,14z"/>
			<path class="st4" d="M48.9,89.4c1.3-0.2,2.4-0.4,3.6-0.6c4.8-0.8,9.4-2.3,13.7-4.7c1.5-0.8,2.9-1.7,4.4-2.5
				c0.3-0.2,0.6-0.3,0.9-0.2c2.6,0.1,5.2,0.3,7.8,0.4c0.1,0,0.2,0,0.3,0.1c-0.1,0.2-0.1,0.3-0.2,0.5c-2.7,4.9-6.1,9.3-10.2,13.2
				c-3.3,3.2-7,5.9-10.9,8.4c-0.4,0.2-0.6,0.2-0.9-0.1c-1.4-1.4-2.4-3.1-3.4-4.8c-1.2-2.2-2.4-4.4-3.6-6.6c-0.4-0.8-0.9-1.6-1.4-2.4
				C49.1,89.8,49,89.6,48.9,89.4z"/>
			<path class="st1" d="M8.7,59.9c0.1-1,0.1-2,0.3-3c0.2-1.5,0.5-2.9,0.7-4.3c0-0.2,0.2-0.5,0.3-0.7c0.1-0.2,0.1-0.4,0.2-0.6
				c0-0.3,0-0.6,0.1-0.9c0.7-2.2,1.4-4.5,2.1-6.7c0.1-0.4,0.3-0.9,0.5-1.3c0.1-0.2,0.2-0.3,0.4-0.2c0.1,0.1,0.3,0.1,0.4,0
				c2.1-0.4,4.2-0.2,6.3-0.1c2.5,0.2,4.9,0.2,7.4,0.4c2.9,0.2,5.7,0.9,8.5,1.6c4,1.1,7.9,2.4,11.7,4.2c0.1,0.1,0.3,0.1,0.4,0.2
				c0,0,0,0.1,0,0.1c-0.5,0-1,0-1.5-0.1c-1.9-0.3-3.8-0.2-5.8-0.1c-1.6,0.1-3.1,0.2-4.7,0.4c-2.2,0.2-4.4,0.6-6.6,1.2
				c-3.3,0.9-6.3,2.2-9.4,3.6c-3.9,1.8-7.7,3.9-11.2,6.4C8.9,59.9,8.9,59.9,8.7,59.9z"/>
			<path class="st3" d="M66.9,70.1c-0.4-0.1-0.8-0.2-1.2-0.3c-3.2-0.9-6.6-1.3-9.9-1.3c-2.2,0-4.5,0.3-6.7,0.5
				c-2.3,0.2-4.6,0.8-6.8,1.7c-0.4,0.1-0.5,0.1-0.6-0.3c-0.7-2.4-1.4-4.7-2.1-7.1c-0.4-1.4-0.8-2.7-1.1-4.1
				c-0.1-0.5-0.1-0.5,0.4-0.7c5-1.3,10.1-1.8,15.3-1.4c0.8,0.1,1.5,0.1,2.3,0.2c0.3,0,0.6-0.2,1.1-0.3c3,4.3,5.8,9,9.5,13
				C66.9,70,66.9,70,66.9,70.1z"/>
			<path class="st1" d="M76.9,75.3c-0.1,0.1-0.2,0.2-0.3,0.3c-1.7,1.4-3.5,2.7-5.5,3.9c-0.2,0.1-0.5,0.2-0.8,0.2
				c-5.5,0-10.9,0.7-16.2,1.9c-4,0.9-8,1.9-12,2.8c-0.4,0.1-0.7,0.2-1.2,0.4c0.1-0.2,0.2-0.4,0.3-0.5c2.7-4.1,6.2-7.5,10.3-10.3
				c1.5-1,3.1-1.9,4.6-2.8c0.4-0.2,0.8-0.3,1.3-0.5c0.1-0.1,0.3-0.1,0.4-0.2c0.2-0.5,0.6-0.3,1-0.3c3.4,0.2,6.7,1.1,9.9,2.1
				c0.8,0.3,1.6,0.6,2.4,1c1.7,0.8,3.5,1.4,5.3,1.8C76.6,75.2,76.7,75.2,76.9,75.3C76.9,75.3,76.9,75.3,76.9,75.3z"/>
			<path class="st8" d="M101,70.1c0,1.9,0.1,3.8,0,5.7c-0.1,2.5-0.3,5.1-0.5,7.6c0,0.4-0.1,0.8-0.1,1.2c0,0.6-0.1,0.6-0.6,0.4
				c-2.9-0.9-5.7-1.9-8.7-2.6c-2.9-0.8-5.8-1.3-8.7-1.7c-0.4,0-0.4-0.2-0.2-0.5c0.7-1.7,1.4-3.5,2.2-5.2c0.1-0.2,0.2-0.4,0.4-0.5
				c2.6-1.1,4.8-2.7,7.1-4.2c0.9-0.6,1.9-1.2,3-1.4c0.3-0.1,0.6-0.1,0.9-0.1c1.2,0,2.5,0,3.7,0c0.1,0,0.2,0,0.3,0
				C100.8,68.9,101,69.1,101,70.1z"/>
			<path class="st9" d="M74.5,50.9c-0.2-0.2-0.4-0.3-0.6-0.5c-5.9-5.1-10.7-11-14.4-17.9c-1.8-3.4-3.2-6.9-4.1-10.7
				c-0.6-2.6-0.8-5.2-0.5-7.9c0.1-0.7,0.3-1.4,0.4-2.2c0-0.1,0.2-0.3,0.3-0.3c1.9-0.1,3.7-0.2,5.6-0.3c0.2,0,0.5,0.1,0.7,0.3
				c0.5,0.4,1,0.9,1.4,1.3c0.1,0.1,0.2,0.4,0.1,0.5c-1.1,4.3-1,8.6-0.2,12.9c1,5.3,2.7,10.4,5.1,15.2c1.6,3.2,3.5,6.2,5.7,9
				c0.1,0.1,0.2,0.2,0.2,0.3C74.5,50.8,74.5,50.8,74.5,50.9z"/>
			<path class="st1" d="M54.2,70.2c-0.5,0.3-0.9,0.6-1.4,0.9c-3.3,2.1-6.7,4.1-9.9,6.3c-4.3,3-8.1,6.5-11.2,10.8
				c-0.1,0.1-0.4,0.3-0.5,0.3c-1.6-0.1-3.2-0.2-4.8-0.4c-0.8-0.1-1.7-0.4-2.5-0.6c-0.1,0-0.2-0.1-0.3-0.1c0.4-0.5,0.8-1,1.1-1.5
				c0.7-0.9,1.3-1.7,2-2.6c1.7-2.2,3.7-4.1,6-5.6c3.9-2.7,8.1-4.7,12.6-6.2c2-0.6,4.1-0.8,6.2-1c0.9-0.1,1.8-0.2,2.6-0.2
				C54.1,70.1,54.1,70.1,54.2,70.2z"/>
			<path class="st10" d="M63.8,42.1c-0.7-0.7-1.4-1.5-2.1-2.2c-4.2-4.5-7.8-9.5-11-14.7c-2.1-3.5-3.8-7.1-5-11
				c-0.2-0.5-0.2-0.5,0.4-0.7c2.7-0.8,5.4-1.4,8.1-1.7c0.1,0,0.3,0,0.4,0c-0.2,0.9-0.4,1.7-0.5,2.6c-0.1,1.3-0.3,2.7-0.2,4.1
				c0.2,4.7,1.7,9,3.6,13.3c1.6,3.5,3.6,6.8,6,10C63.6,41.7,63.7,41.9,63.8,42.1C63.8,42.1,63.8,42.1,63.8,42.1z"/>
			<path class="st1" d="M38.7,88.3c0.4-0.7,0.7-1.4,1.6-1.7c3.5-1.1,7-2,10.6-2.7c3.4-0.7,6.8-1.4,10.2-1.9c2.1-0.3,4.1-0.4,6.2-0.6
				c0.1,0,0.2,0,0.4,0.1c-0.1,0.1-0.2,0.1-0.3,0.2c-2.5,1.4-5,2.8-7.8,3.7c-1.8,0.6-3.6,1.1-5.4,1.5c-2.8,0.5-5.5,1-8.3,1.3
				c-2.4,0.2-4.8,0.2-7.2,0.2C38.7,88.4,38.7,88.4,38.7,88.3z"/>
			<path class="st1" d="M99,67.3c-0.2,0-0.4,0-0.6,0c-1.3,0.1-2.5,0.1-3.8,0.3c-1.2,0.1-2.3,0.7-3.3,1.3c-1.4,0.9-2.7,1.8-4,2.6
				c-0.6,0.4-1.3,0.7-2,1.1c0.1-0.3,0.1-0.4,0.1-0.5c1-3.8,1.6-7.6,1.8-11.5c0-0.5,0-0.5,0.6-0.4c1.6,0.2,3,0.8,4.5,1.3
				c1.8,0.7,3.3,2,4.7,3.3c0.5,0.5,1,1,1.5,1.5c0.3,0.3,0.5,0.6,0.7,0.9C99,67.2,99,67.2,99,67.3z"/>
			<path class="st6" d="M37.6,16.9c-0.9,4-1,8-0.9,12.1c-3.9-1.1-7.8-2.2-11.6-3.3C26.2,24,35.4,17.5,37.6,16.9z"/>
			<path class="st11" d="M98,103.1c1.6-5.3,2.6-10.7,3.3-16.2c0.4,0.1,0.7,0.3,1,0.4c2,0.7,3.9,1.5,5.8,2.5c0.3,0.2,0.3,0.3,0.2,0.6
				c-2.7,4.7-5.9,8.9-9.9,12.6c-0.1,0-0.1,0.1-0.2,0.1C98.2,103.1,98.2,103.1,98,103.1z"/>
			<path class="st12" d="M29.3,105.4c-0.2-0.1-0.3-0.2-0.5-0.4c-0.9-0.8-1.9-1.6-2.8-2.5c-0.2-0.2-0.2-0.4-0.1-0.6
				c1.5-4.1,3.7-7.9,6.1-11.5c0.2-0.3,0.4-0.4,0.7-0.4c0.8,0,1.6,0,2.5,0c0.1,0,0.3,0,0.5,0C33.1,95,30.9,100,29.3,105.4z"/>
			<path class="st4" d="M99.9,59.3c0.4,2.4,0.6,4.7,0.8,7.1c0,0-0.1,0.1-0.1,0.1c-0.2-0.1-0.5-0.2-0.7-0.4c-1.6-1.3-3.1-2.6-4.6-3.9
				c-0.4-0.3-0.8-0.6-1.2-1c-0.1-0.1-0.2-0.3-0.3-0.4c0.2-0.1,0.3-0.2,0.5-0.3c0.8-0.2,1.6-0.3,2.3-0.4
				C97.6,59.8,98.7,59.5,99.9,59.3z"/>
			<path class="st4" d="M73.6,79.7c0.2-0.2,0.4-0.3,0.5-0.4c1.2-0.9,2.4-1.8,3.5-2.8c0.7-0.7,1.3-1,2.3-0.9c0.6,0.1,1.3-0.2,2-0.3
				c0.2,0,0.4-0.1,0.7-0.1c-0.1,0.2-0.1,0.4-0.1,0.5c-0.6,1.4-1.2,2.8-1.8,4.2c-0.1,0.2-0.2,0.4-0.5,0.3c-2.1-0.2-4.2-0.3-6.3-0.5
				C73.8,79.8,73.7,79.8,73.6,79.7z"/>
			<path class="st10" d="M33.3,88.5c0.1-0.2,0.2-0.4,0.3-0.6c1.3-1.7,2.8-3.3,4.4-4.7c1.5-1.4,3.1-2.7,4.7-4
				c0.1-0.1,0.3-0.1,0.4-0.2c0.2,0.4-0.2,0.6-0.3,0.8c-1.5,1.7-2.7,3.6-3.9,5.5c-0.6,1-1.3,2-1.9,3c-0.1,0.1-0.2,0.2-0.4,0.3
				c-0.8,0-1.7,0.1-2.5,0.1C33.8,88.6,33.6,88.6,33.3,88.5z"/>
		</g>
	</g>
	<use xlink:href="#XMLID_1_"  style="overflow:visible;fill:none;stroke:#000000;stroke-width:1.4318;stroke-miterlimit:10;"/>
</g>
</svg>
