<?xml version="1.0" encoding="utf-8"?>
<!-- Generator: Adobe Illustrator 21.0.2, SVG Export Plug-In . SVG Version: 6.00 Build 0)  -->
<svg version="1.1" id="Layer_1" xmlns="http://www.w3.org/2000/svg" xmlns:xlink="http://www.w3.org/1999/xlink" x="0px" y="0px"
	 viewBox="0 0 1280 1024" style="enable-background:new 0 0 1280 1024;" xml:space="preserve">
<style type="text/css">
	.st0{fill:#FFFFFF;}
</style>
<g>
	<path class="st0" d="M630.3,228.8c32.1,26.9,58.8,61,80.2,102.4c22.1,42.9,32,85.4,29.9,127.5c-1.8,40.5-14.7,75-38.7,103.7
		c-27.9,33.2-64.9,49.7-111.1,49.5c-12.2,0-43-6.1-92.3-18.2c-17.9-4.3-32.4-6.1-43.4-5.3c-11.1,0.7-23,4-35.7,9.9
		c-27.5,13-47.3,19.2-59.5,18.5c-12.1-0.7-27.2-8.6-45.3-23.7c-17.2-14.4-26.6-30.8-28.2-49.3c-1.6-18.4,4.9-36.4,19.6-53.8
		c13.2-15.7,31.1-29.2,53.8-40.5c5.6-2.6,31-10.5,76.3-23.8c42.1-12.4,73.6-31,94.2-55.6c10.3-12.3,16-24.7,17-37.3
		c1-12.6-2.8-22.4-11.3-29.6c-8.9-7.4-17.5-9.9-25.9-7.5c-8.4,2.5-20,10.7-34.6,24.7c-27.4,26.8-55.6,40.9-84.6,42.4
		c-29.3,1.8-57.1-8.4-83.5-30.5c-18.3-15.4-28.9-33-31.7-52.9c-3.3-22.8,2.7-43.3,18.1-61.7c23.3-27.8,55.5-46.8,96.5-57
		c41-10.2,81.7-9.1,122.1,3.2C554.8,176.9,594.2,198.5,630.3,228.8z M275.6,632.3c24.9,20.9,38.4,48.1,40.6,81.6
		c2.4,33.2-6.8,62.1-27.4,86.8c-21.4,25.5-49,39.8-82.8,42.9c-33.8,3.1-63.5-6.1-89-27.4c-24.9-20.9-39.2-47.2-42.7-79
		c-3.8-34.4,5.6-65.1,28.2-92c20.9-24.9,47-38.9,78.3-41.9C216.2,599.3,247.8,609,275.6,632.3z"/>
</g>
</svg>
