<?xml version="1.0" encoding="utf-8"?>
<!-- Generator: Adobe Illustrator 21.0.2, SVG Export Plug-In . SVG Version: 6.00 Build 0)  -->
<svg version="1.1" id="Layer_1" xmlns="http://www.w3.org/2000/svg" xmlns:xlink="http://www.w3.org/1999/xlink" x="0px" y="0px"
	 viewBox="0 0 519.7 111.5" style="enable-background:new 0 0 519.7 111.5;" xml:space="preserve">
<style type="text/css">
	.st0{fill:#FCFAFA;}
	.st1{fill:#FFFFFF;stroke:#FFFFFF;stroke-width:0.25;stroke-miterlimit:10;}
	.st2{clip-path:url(#SVGID_2_);}
	.st3{fill:#FFFFFF;}
	.st4{fill:#ED1C24;}
	.st5{fill:#F15A22;}
	.st6{fill:#FFC60B;}
	.st7{fill:#209900;}
	.st8{fill:#0CCDF5;}
	.st9{fill:#602D91;}
	.st10{fill:#009947;}
	.st11{fill:#00A8DE;}
	.st12{fill:#267C35;}
	.st13{fill:none;stroke:#000000;stroke-width:1.4512;stroke-miterlimit:10;}
</style>
<g>
	<path class="st0" d="M163.1,36.9c2.4,4.7,4.9,9.4,7.5,14.3c0.3-0.7,0.8-1.6,1.5-2.8c0.6-1.2,1.4-2.6,2.2-4.2
		c0.8-1.6,1.8-3.3,2.7-5.2c1-1.9,2-3.7,3-5.7c1-1.9,2-3.8,3-5.6c1-1.8,1.9-3.6,2.7-5.2h0.7c0.4,3.3,0.7,6.6,1,9.7
		c0.3,3.1,0.7,6.2,1,9.2c0.3,3,0.7,6,1,8.9c0.3,2.9,0.7,5.8,1.1,8.7c-0.4-0.1-0.8-0.1-1.2-0.1c-0.4,0-0.8,0-1.2,0
		c-0.4,0-0.8,0-1.2,0c-0.4,0-0.8,0-1.2,0.1c-0.4-4.6-0.7-9.1-1.1-13.4c-0.4-4.3-0.8-8.8-1.4-13.3h-0.1c-2.3,4.4-4.6,8.7-6.9,13
		c-2.3,4.3-4.4,8.8-6.4,13.6h-0.5c-2-4.4-4.2-8.8-6.4-13.2c-2.2-4.4-4.5-8.9-6.7-13.5h-0.1c-0.2,2.2-0.5,4.5-0.8,7
		c-0.3,2.5-0.6,5-0.8,7.4c-0.2,2.4-0.4,4.8-0.6,6.9c-0.2,2.2-0.3,4-0.3,5.3c-0.5-0.1-1.1-0.1-1.8-0.1c-0.6,0-1.2,0-1.8,0.1
		c0.4-2.8,0.9-5.8,1.4-8.9c0.5-3.1,0.9-6.3,1.4-9.4c0.4-3.2,0.8-6.3,1.2-9.4c0.4-3.1,0.7-6,1-8.8h0.9
		C158.4,27.5,160.8,32.2,163.1,36.9z"/>
	<path class="st0" d="M237.1,40.1c0-4.9,0-8.7-0.1-11.4c0-2.7-0.1-4.5-0.3-5.5c0.4,0.1,0.7,0.1,1.1,0.2c0.3,0.1,0.7,0.1,1,0.1
		c0.4,0,0.9-0.1,1.5-0.3c-0.1,1.2-0.2,2.7-0.3,4.3c-0.1,1.7-0.2,3.5-0.3,5.4c-0.1,1.9-0.1,3.9-0.2,5.9c-0.1,2-0.1,4-0.2,5.9
		c0,2.3-0.4,4.4-1,6.3c-0.7,1.8-1.6,3.4-2.8,4.7c-1.2,1.3-2.7,2.3-4.5,2.9c-1.8,0.7-3.8,1-6.1,1c-5.1,0-8.8-1.2-11.1-3.5
		c-2.3-2.4-3.5-6.1-3.5-11.2c0-1.6,0-3.1,0.1-4.3c0.1-1.3,0.1-2.6,0.1-3.9c0-2.9,0-5.5-0.1-7.8c-0.1-2.3-0.1-4.2-0.2-5.7
		c0.4,0.1,0.8,0.1,1.3,0.2c0.5,0.1,0.9,0.1,1.3,0.1c0.4,0,0.7,0,1.1-0.1c0.4-0.1,0.7-0.1,1.1-0.2c-0.1,0.8-0.1,1.8-0.2,3
		c-0.1,1.2-0.1,2.6-0.2,4.2c-0.1,1.6-0.1,3.2-0.2,5.1c0,1.8-0.1,3.7-0.1,5.6c0,1.2,0,2.4,0.1,3.7c0,1.3,0.2,2.5,0.4,3.7
		c0.2,1.2,0.5,2.3,1,3.4c0.5,1.1,1.1,2,2,2.9c0.8,0.8,1.9,1.5,3.2,1.9c1.3,0.5,2.9,0.7,4.8,0.7c1.9,0,3.4-0.3,4.7-0.8
		c1.3-0.6,2.3-1.3,3.1-2.2c0.8-0.9,1.4-1.9,1.9-3.1c0.5-1.2,0.8-2.4,1-3.7c0.2-1.3,0.3-2.6,0.4-3.9
		C237.1,42.4,237.1,41.2,237.1,40.1z"/>
	<path class="st0" d="M262.8,54.1c0.5,0.6,1,1.2,1.7,1.7c0.7,0.5,1.4,0.9,2.3,1.3c0.9,0.3,1.9,0.5,3,0.5c1.1,0,2.1-0.2,3-0.6
		c0.9-0.4,1.7-0.9,2.3-1.6c0.6-0.7,1.1-1.5,1.5-2.4c0.3-0.9,0.5-1.9,0.5-2.9c0-1.6-0.4-2.9-1.2-3.8c-0.8-0.9-1.8-1.7-3-2.3
		c-1.2-0.6-2.5-1.2-3.8-1.7c-1.4-0.5-2.7-1.2-3.8-2c-1.2-0.8-2.2-1.8-3-3c-0.8-1.2-1.2-2.8-1.2-4.9c0-1.5,0.3-2.8,0.8-4
		c0.5-1.2,1.2-2.2,2.2-3.1c1-0.9,2.1-1.5,3.5-2c1.4-0.5,2.9-0.7,4.6-0.7c1.6,0,3,0.2,4.2,0.6c1.2,0.4,2.3,1,3.3,1.8
		c-0.3,0.6-0.6,1.2-0.8,1.9c-0.2,0.7-0.4,1.5-0.6,2.5h-0.6c-0.2-0.5-0.4-1-0.7-1.6c-0.3-0.6-0.7-1.1-1.2-1.6
		c-0.5-0.5-1.1-0.9-1.8-1.2c-0.7-0.3-1.5-0.5-2.4-0.5c-0.9,0-1.8,0.2-2.6,0.5c-0.8,0.3-1.5,0.8-2.1,1.3c-0.6,0.6-1.1,1.3-1.4,2.1
		c-0.3,0.8-0.5,1.7-0.5,2.6c0,1.6,0.4,2.9,1.2,3.9c0.8,0.9,1.8,1.7,3,2.4c1.2,0.6,2.5,1.2,3.8,1.7c1.4,0.5,2.7,1.1,3.8,1.8
		c1.2,0.7,2.2,1.7,3,2.8c0.8,1.1,1.2,2.7,1.2,4.6c0,1.6-0.3,3.1-0.8,4.5c-0.6,1.4-1.4,2.7-2.4,3.7c-1.1,1.1-2.4,1.9-3.9,2.4
		c-1.5,0.6-3.3,0.9-5.3,0.9c-2.1,0-3.8-0.3-5.1-0.9c-1.3-0.6-2.4-1.2-3.3-2c0.3-0.8,0.5-1.5,0.6-2.2c0.1-0.6,0.2-1.5,0.3-2.5h0.6
		C261.9,52.8,262.3,53.5,262.8,54.1z"/>
	<path class="st0" d="M328.1,27.7c-0.8-0.6-1.6-1.2-2.5-1.6c-0.9-0.5-2-0.9-3.1-1.1c-1.1-0.3-2.3-0.4-3.6-0.4c-2.1,0-4.1,0.3-5.9,1
		c-1.8,0.7-3.4,1.7-4.7,3c-1.3,1.4-2.4,3.1-3.2,5.2c-0.8,2.1-1.1,4.6-1.1,7.5c0,2.5,0.3,4.8,1,6.9c0.7,2,1.7,3.8,3,5.2
		c1.3,1.4,2.9,2.5,4.8,3.3c1.9,0.8,4,1.1,6.4,1.1c0.7,0,1.5,0,2.2-0.1c0.8-0.1,1.5-0.2,2.3-0.3c0.7-0.1,1.4-0.3,2-0.5
		c0.6-0.2,1.2-0.5,1.6-0.7c0-1,0.1-2.1,0.1-3.1c0-1,0-2.1,0-3.2c0-1.2,0-2.4-0.1-3.6c-0.1-1.2-0.1-2.4-0.2-3.5
		c0.8,0.2,1.7,0.3,2.4,0.3c0.4,0,0.7,0,1.1-0.1c0.4,0,0.7-0.1,1.1-0.2c-0.1,0.8-0.1,2.1-0.2,3.8c0,1.7-0.1,4-0.1,6.8
		c0,0.7,0,1.4,0,2.1c0,0.7,0,1.4,0,2.1c-0.7,0.3-1.6,0.6-2.7,0.9c-1.1,0.3-2.2,0.5-3.4,0.7c-1.2,0.2-2.4,0.4-3.6,0.5
		c-1.2,0.2-2.3,0.2-3.3,0.2c-3,0-5.7-0.4-8.2-1.1c-2.4-0.7-4.5-1.9-6.2-3.5c-1.7-1.6-3-3.5-3.9-5.8c-0.9-2.3-1.4-5-1.4-8.1
		c0-3,0.5-5.6,1.4-7.9c0.9-2.3,2.3-4.3,4-5.9c1.7-1.6,3.8-2.8,6.3-3.6c2.5-0.8,5.2-1.3,8.2-1.3c1.7,0,3.3,0.1,4.6,0.3
		c1.3,0.2,2.5,0.4,3.6,0.8c1,0.3,1.9,0.6,2.7,1c0.8,0.3,1.5,0.7,2.1,1c-0.3,0.5-0.5,1.1-0.7,1.9c-0.2,0.8-0.4,1.5-0.4,2.1H330
		C329.5,28.9,328.8,28.3,328.1,27.7z"/>
	<path class="st0" d="M353,36.7c0-2.3,0-4.5-0.1-6.7c-0.1-2.2-0.2-4.5-0.3-6.7c1,0.1,2,0.1,2.9,0.2s1.9,0.1,2.9,0.1c1,0,2,0,2.9-0.1
		c0.9-0.1,1.9-0.1,2.9-0.1c1.4,0,2.8,0.1,4.1,0.4c1.3,0.3,2.4,0.7,3.4,1.4c1,0.6,1.7,1.5,2.3,2.5c0.6,1,0.8,2.3,0.8,3.9
		c0,1.7-0.4,3.1-1.1,4.3c-0.7,1.2-1.6,2.2-2.7,3c-1.1,0.8-2.2,1.4-3.4,1.8c-1.2,0.4-2.3,0.7-3.3,0.9c0.4,0.5,1,1.3,1.7,2.2
		c0.7,0.9,1.5,2,2.4,3.1c0.9,1.1,1.8,2.3,2.7,3.5c0.9,1.2,1.9,2.4,2.7,3.5c0.9,1.1,1.7,2.2,2.5,3.1c0.8,0.9,1.4,1.6,1.9,2.1
		c-0.5-0.1-1-0.1-1.5-0.1c-0.5,0-1,0-1.5,0c-0.5,0-1,0-1.5,0c-0.5,0-1,0-1.5,0.1c-0.5-0.7-1.3-1.8-2.3-3.3c-1-1.5-2.2-3-3.4-4.7
		c-1.3-1.7-2.5-3.3-3.8-5c-1.3-1.6-2.5-3-3.6-4.2h-1.9v3.8c0,2.3,0,4.5,0.1,6.8c0.1,2.2,0.2,4.4,0.3,6.6c-0.8-0.1-1.6-0.1-2.5-0.1
		s-1.7,0-2.5,0.1c0.1-2.2,0.2-4.3,0.3-6.6c0.1-2.2,0.1-4.5,0.1-6.8V36.7z M357.1,39.7c0.5,0.1,1,0.2,1.6,0.2c0.6,0,1.2,0.1,1.9,0.1
		c1.1,0,2.1-0.1,3.3-0.4c1.1-0.2,2.2-0.7,3.1-1.3c0.9-0.6,1.7-1.4,2.4-2.4c0.6-1,0.9-2.3,0.9-3.9c0-1.4-0.2-2.5-0.7-3.4
		c-0.5-0.9-1.1-1.6-1.9-2.1c-0.8-0.5-1.6-0.9-2.5-1.1c-0.9-0.2-1.8-0.3-2.7-0.3c-1.2,0-2.2,0-3,0.1c-0.8,0.1-1.4,0.1-2,0.2
		c-0.1,1.9-0.1,3.8-0.2,5.7c-0.1,1.9-0.1,3.8-0.1,5.6V39.7z"/>
	<path class="st0" d="M424.7,59c-0.5-0.1-0.9-0.1-1.3-0.1c-0.4,0-0.9,0-1.3,0s-0.9,0-1.3,0c-0.4,0-0.9,0-1.3,0.1
		c-0.2-0.8-0.6-1.8-1-2.9c-0.4-1.1-0.9-2.3-1.3-3.5c-0.5-1.2-1-2.5-1.5-3.8c-0.5-1.3-1-2.5-1.4-3.6c-1.1,0-2.2-0.1-3.3-0.1
		c-1.1,0-2.2,0-3.4,0c-1.1,0-2.1,0-3.1,0c-1,0-2.1,0-3.1,0.1c-1.1,2.7-2.1,5.3-3,7.7c-0.9,2.4-1.5,4.5-2,6.1
		c-0.6-0.1-1.2-0.1-1.9-0.1c-0.7,0-1.3,0-1.9,0.1c2.7-6.1,5.4-12.1,8-18.1c2.6-6,5.2-12.1,7.9-18.3h1c0.8,2,1.7,4.2,2.6,6.5
		c0.9,2.3,1.9,4.7,2.9,7.1c1,2.4,2,4.8,3,7.1c1,2.4,1.9,4.6,2.8,6.6c0.9,2,1.6,3.8,2.3,5.4C423.7,56.9,424.3,58.2,424.7,59z
		 M402.2,42.8c0.9,0,1.8,0,2.7,0.1c0.9,0,1.9,0.1,2.7,0.1c0.9,0,1.9,0,2.9,0c0.9,0,1.9,0,2.9-0.1l-5.7-13.2L402.2,42.8z"/>
	<path class="st0" d="M450.4,59c-0.8-2-1.7-4.5-2.9-7.4c-1.1-2.9-2.3-5.9-3.6-9.1c-1.3-3.2-2.6-6.5-3.9-9.8
		c-1.3-3.3-2.6-6.5-3.8-9.5c0.5,0.1,0.9,0.1,1.4,0.2c0.4,0.1,0.9,0.1,1.3,0.1s0.8,0,1.3-0.1c0.4-0.1,0.9-0.1,1.4-0.2
		c0.7,2.3,1.6,4.7,2.5,7.2c0.9,2.5,1.8,5.1,2.9,7.7c1,2.6,2,5.2,3.1,7.9c1.1,2.7,2.1,5.3,3.2,8c0.6-1.4,1.3-3,2-4.8
		c0.7-1.8,1.4-3.6,2.2-5.5c0.7-1.9,1.5-3.8,2.2-5.8c0.7-2,1.4-3.8,2.1-5.7c0.7-1.8,1.3-3.5,1.8-5.1c0.5-1.6,1-2.9,1.4-4.1
		c0.7,0.2,1.4,0.3,1.9,0.3s1.1-0.1,1.9-0.3c-2.6,6-5.2,12-7.6,18S456,53,453.8,59c-0.5-0.1-1.1-0.1-1.7-0.1
		C451.4,58.9,450.9,58.9,450.4,59z"/>
	<path class="st0" d="M486.8,29.9c-0.1-2.2-0.2-4.4-0.3-6.7c1.5,0.1,3,0.1,4.6,0.2s3,0.1,4.6,0.1c1.5,0,3,0,4.5-0.1
		c1.5-0.1,3-0.1,4.5-0.2c-0.1,0.5-0.2,1-0.2,1.6c0,0.5,0.1,1,0.2,1.6c-1.1-0.1-2.1-0.1-3-0.2c-0.9-0.1-1.8-0.1-2.9-0.2
		c-1-0.1-2.1-0.1-3.3-0.2c-1.2-0.1-2.6-0.1-4.3-0.1c0,1.1-0.1,2.2-0.1,3.2c-0.1,1-0.1,2.2-0.1,3.4c0,1.4,0,2.7,0,4
		c0,1.3,0,2.3,0,2.9c1.5,0,2.8,0,4-0.1c1.2,0,2.3-0.1,3.3-0.1c1-0.1,1.9-0.1,2.7-0.2c0.8-0.1,1.6-0.1,2.4-0.2
		c-0.1,0.5-0.2,1.1-0.2,1.6c0,0.5,0.1,1,0.2,1.6c-0.9-0.1-1.9-0.2-3.1-0.3c-1.2-0.1-2.3-0.1-3.5-0.1c-1.2,0-2.3,0-3.3-0.1
		c-1,0-1.9,0-2.5,0c0,0.3,0,0.7,0,1c0,0.4,0,0.8,0,1.4v2v3.1c0,2,0,3.6,0,4.9c0,1.3,0,2.3,0.1,2.9c1.1,0,2.3,0,3.6,0
		c1.3,0,2.6,0,3.8-0.1c1.2-0.1,2.4-0.1,3.5-0.2c1.1-0.1,2.1-0.2,2.9-0.4c-0.1,0.2-0.1,0.5-0.1,0.8c0,0.3,0,0.6,0,0.8
		c0,0.6,0.1,1,0.2,1.4c-1.5-0.1-3-0.1-4.6-0.1c-1.5,0-3,0-4.6,0c-1.6,0-3.1,0-4.6,0c-1.5,0-3.1,0-4.6,0.1c0.1-2.2,0.2-4.4,0.3-6.6
		c0.1-2.2,0.1-4.5,0.1-6.7v-9C486.9,34.3,486.8,32.1,486.8,29.9z"/>
</g>
<g>
	<path class="st1" d="M153.9,79.9c0.9,1.8,1.9,3.7,3,5.6c0.1-0.3,0.3-0.6,0.6-1.1c0.3-0.5,0.6-1,0.9-1.6c0.3-0.6,0.7-1.3,1.1-2
		c0.4-0.7,0.8-1.5,1.2-2.2c0.4-0.7,0.8-1.5,1.2-2.2c0.4-0.7,0.8-1.4,1.1-2h0.3c0.1,1.3,0.3,2.5,0.4,3.7c0.1,1.2,0.3,2.4,0.4,3.6
		c0.1,1.2,0.3,2.3,0.4,3.5c0.1,1.1,0.3,2.3,0.4,3.4c-0.2,0-0.3,0-0.5,0c-0.2,0-0.3,0-0.5,0c-0.2,0-0.3,0-0.5,0s-0.3,0-0.5,0
		c-0.1-1.8-0.3-3.5-0.4-5.2c-0.1-1.7-0.3-3.4-0.5-5.1h0c-0.9,1.7-1.8,3.4-2.7,5.1c-0.9,1.7-1.7,3.4-2.6,5.3h-0.2
		c-0.8-1.7-1.7-3.4-2.5-5.1c-0.9-1.7-1.8-3.4-2.7-5.2h0c-0.1,0.8-0.2,1.7-0.3,2.7c-0.1,1-0.2,1.9-0.3,2.9c-0.1,0.9-0.2,1.8-0.2,2.7
		c-0.1,0.8-0.1,1.5-0.1,2.1c-0.2,0-0.5,0-0.7,0c-0.3,0-0.5,0-0.7,0c0.2-1.1,0.4-2.2,0.5-3.5c0.2-1.2,0.4-2.4,0.5-3.7
		c0.2-1.2,0.3-2.4,0.5-3.6c0.1-1.2,0.3-2.3,0.4-3.4h0.3C152,76.2,152.9,78.1,153.9,79.9z"/>
	<path class="st1" d="M177.7,77.1c0-0.9-0.1-1.7-0.1-2.6c0.6,0,1.2,0,1.8,0.1c0.6,0,1.2,0,1.8,0c0.6,0,1.2,0,1.8,0s1.2,0,1.8-0.1
		c0,0.2-0.1,0.4-0.1,0.6c0,0.2,0,0.4,0.1,0.6c-0.4,0-0.8-0.1-1.2-0.1c-0.4,0-0.7-0.1-1.1-0.1c-0.4,0-0.8-0.1-1.3-0.1
		c-0.5,0-1,0-1.7,0c0,0.4,0,0.8-0.1,1.2c0,0.4,0,0.8,0,1.3c0,0.5,0,1,0,1.5c0,0.5,0,0.9,0,1.1c0.6,0,1.1,0,1.6,0
		c0.5,0,0.9,0,1.3-0.1c0.4,0,0.7,0,1.1-0.1s0.6,0,0.9-0.1c0,0.2-0.1,0.4-0.1,0.6c0,0.2,0,0.4,0.1,0.6c-0.3,0-0.8-0.1-1.2-0.1
		c-0.5,0-0.9,0-1.4-0.1s-0.9,0-1.3,0c-0.4,0-0.7,0-1,0c0,0.1,0,0.3,0,0.4c0,0.1,0,0.3,0,0.5v0.8v1.2c0,0.8,0,1.4,0,1.9
		c0,0.5,0,0.9,0,1.1c0.4,0,0.9,0,1.4,0c0.5,0,1,0,1.5,0c0.5,0,1,0,1.4-0.1c0.4,0,0.8-0.1,1.1-0.2c0,0.1,0,0.2-0.1,0.3
		c0,0.1,0,0.2,0,0.3c0,0.2,0,0.4,0.1,0.5c-0.6,0-1.2,0-1.8,0c-0.6,0-1.2,0-1.8,0c-0.6,0-1.2,0-1.8,0c-0.6,0-1.2,0-1.8,0
		c0-0.9,0.1-1.7,0.1-2.6c0-0.9,0.1-1.7,0.1-2.6v-3.5C177.8,78.9,177.8,78,177.7,77.1z"/>
	<path class="st1" d="M200.7,75.6c-0.3,0-0.7,0-1.1,0c-0.4,0-0.8,0-1.1,0c-0.4,0-0.8,0-1.1,0.1c-0.4,0-0.7,0.1-1,0.1
		c0.1-0.2,0.1-0.5,0.1-0.6c0-0.1,0-0.4-0.1-0.6c0.9,0,1.8,0,2.6,0.1s1.7,0,2.6,0c0.9,0,1.8,0,2.6,0c0.8,0,1.7,0,2.6-0.1
		c-0.1,0.3-0.1,0.5-0.1,0.6c0,0.2,0,0.4,0.1,0.6c-0.3,0-0.6-0.1-1-0.1c-0.4,0-0.7-0.1-1.1-0.1c-0.4,0-0.8,0-1.1,0
		c-0.4,0-0.7,0-1.1,0c0,1.4-0.1,2.8-0.1,4.2v3.5c0,0.9,0,1.8,0.1,2.6c0,0.9,0.1,1.7,0.1,2.5c-0.3,0-0.6,0-1,0c-0.4,0-0.7,0-1,0
		c0-0.8,0.1-1.7,0.1-2.5c0-0.9,0.1-1.7,0.1-2.6v-3.5C200.8,78.4,200.7,77,200.7,75.6z"/>
	<path class="st1" d="M229.3,77.2c0-0.9-0.1-1.7-0.1-2.6c0.2,0,0.3,0,0.5,0.1c0.2,0,0.3,0,0.5,0c0.2,0,0.3,0,0.5,0
		c0.2,0,0.3,0,0.5-0.1c0,0.9-0.1,1.8-0.1,2.6c0,0.9,0,1.7,0,2.6v3.5c0,0.9,0,1.8,0,2.6c0,0.9,0.1,1.7,0.1,2.5c-0.3,0-0.6,0-1,0
		c-0.4,0-0.7,0-1,0c0-0.8,0.1-1.7,0.1-2.5c0-0.9,0.1-1.7,0.1-2.6v-1.8c-0.7,0-1.4,0-2.1,0c-0.7,0-1.4,0-2.1,0c-0.7,0-1.4,0-2.1,0
		c-0.7,0-1.4,0-2.1,0v1.8c0,0.9,0,1.8,0.1,2.6c0,0.9,0.1,1.7,0.1,2.5c-0.3,0-0.6,0-1,0c-0.4,0-0.7,0-1,0c0-0.8,0.1-1.7,0.1-2.5
		c0-0.9,0.1-1.7,0.1-2.6v-3.5c0-0.9,0-1.8-0.1-2.6c0-0.9-0.1-1.7-0.1-2.6c0.2,0,0.3,0,0.5,0.1c0.2,0,0.3,0,0.5,0c0.2,0,0.3,0,0.5,0
		c0.2,0,0.3,0,0.5-0.1c0,0.9-0.1,1.8-0.1,2.6c0,0.9-0.1,1.7-0.1,2.6v0.7c0.7,0,1.4,0,2.1,0c0.7,0,1.4,0,2.1,0c0.7,0,1.4,0,2.1,0
		c0.7,0,1.4,0,2.1,0v-0.7C229.3,78.9,229.3,78,229.3,77.2z"/>
	<path class="st1" d="M243.9,81.5c0-1.1,0.2-2.2,0.6-3.1c0.4-0.9,0.9-1.7,1.6-2.3c0.7-0.6,1.5-1.1,2.4-1.4c0.9-0.3,1.9-0.5,3-0.5
		c1.1,0,2.1,0.2,3.1,0.5c0.9,0.3,1.7,0.8,2.4,1.4c0.7,0.6,1.2,1.4,1.6,2.3c0.4,0.9,0.6,1.9,0.6,3.1c0,1.1-0.2,2.2-0.6,3.1
		c-0.4,0.9-0.9,1.7-1.6,2.3c-0.7,0.6-1.5,1.1-2.4,1.4c-0.9,0.3-1.9,0.5-3.1,0.5c-1.1,0-2.1-0.2-3-0.5c-0.9-0.3-1.7-0.8-2.4-1.4
		c-0.7-0.6-1.2-1.4-1.6-2.3C244.1,83.7,243.9,82.7,243.9,81.5z M257,81.5c0-1.1-0.1-2.1-0.4-2.9c-0.3-0.8-0.7-1.5-1.2-2
		c-0.5-0.5-1.1-0.9-1.8-1.2c-0.7-0.3-1.4-0.4-2.2-0.4c-0.8,0-1.5,0.1-2.2,0.4c-0.7,0.3-1.3,0.6-1.8,1.2c-0.5,0.5-0.9,1.2-1.2,2
		c-0.3,0.8-0.4,1.8-0.4,2.9c0,1.1,0.1,2.1,0.4,2.9c0.3,0.8,0.7,1.5,1.2,2c0.5,0.5,1.1,0.9,1.8,1.2c0.7,0.3,1.4,0.4,2.2,0.4
		c0.8,0,1.5-0.1,2.2-0.4c0.7-0.3,1.3-0.6,1.8-1.2c0.5-0.5,0.9-1.2,1.2-2C256.9,83.6,257,82.6,257,81.5z"/>
	<path class="st1" d="M271.9,79.8c0-0.9,0-1.8-0.1-2.6c0-0.9-0.1-1.7-0.1-2.6c0.5,0,1,0,1.5,0.1s1,0,1.5,0c0.5,0,1,0,1.5-0.1
		c0.5,0,1,0,1.5,0c1.2,0,2.2,0.2,3,0.5c0.8,0.3,1.5,0.8,2.1,1.3c0.5,0.6,0.9,1.3,1.2,2.1c0.2,0.8,0.4,1.8,0.4,2.8
		c0,1.3-0.2,2.5-0.7,3.4c-0.5,0.9-1.1,1.7-1.8,2.2c-0.7,0.6-1.5,1-2.4,1.2c-0.9,0.2-1.7,0.4-2.5,0.4c-0.5,0-0.9,0-1.4,0
		c-0.4,0-0.9,0-1.4,0c-0.5,0-0.9,0-1.4,0c-0.4,0-0.9,0-1.4,0c0-0.8,0.1-1.7,0.1-2.5c0-0.9,0.1-1.7,0.1-2.6V79.8z M273.6,83.2
		c0,1.5,0,2.9,0.1,4.3c0.3,0.1,0.7,0.1,1.1,0.2c0.5,0,1,0.1,1.5,0.1c0.7,0,1.5-0.1,2.2-0.3c0.7-0.2,1.4-0.5,2-1
		c0.6-0.5,1.1-1.1,1.4-2c0.4-0.8,0.6-1.9,0.6-3.3c0-1.2-0.1-2.1-0.4-2.9c-0.3-0.8-0.7-1.3-1.2-1.8c-0.5-0.4-1.1-0.7-1.8-0.9
		c-0.7-0.2-1.5-0.3-2.3-0.3c-0.6,0-1.2,0-1.7,0.1c-0.5,0-1,0.1-1.4,0.1c0,0.6-0.1,1.3-0.1,2c0,0.7,0,1.4,0,2.1V83.2z"/>
	<path class="st1" d="M297.6,77.2c0-0.9-0.1-1.7-0.1-2.6c0.2,0,0.3,0,0.5,0.1c0.2,0,0.3,0,0.5,0c0.2,0,0.3,0,0.5,0
		c0.2,0,0.3,0,0.5-0.1c0,0.9-0.1,1.8-0.1,2.6c0,0.9-0.1,1.7-0.1,2.6v3.5c0,0.9,0,1.8,0.1,2.6c0,0.9,0.1,1.7,0.1,2.5
		c-0.3,0-0.6,0-1,0s-0.7,0-1,0c0-0.8,0.1-1.7,0.1-2.5c0-0.9,0.1-1.7,0.1-2.6v-3.5C297.7,78.9,297.7,78,297.6,77.2z"/>
	<path class="st1" d="M313.4,86.5c0.2,0.2,0.4,0.5,0.7,0.7c0.3,0.2,0.6,0.4,0.9,0.5c0.3,0.1,0.7,0.2,1.2,0.2c0.4,0,0.8-0.1,1.2-0.2
		c0.4-0.2,0.7-0.4,0.9-0.6c0.2-0.3,0.4-0.6,0.6-0.9c0.1-0.4,0.2-0.7,0.2-1.1c0-0.6-0.2-1.1-0.5-1.5c-0.3-0.4-0.7-0.7-1.2-0.9
		c-0.5-0.2-1-0.5-1.5-0.7c-0.5-0.2-1.1-0.5-1.5-0.8c-0.5-0.3-0.9-0.7-1.2-1.2c-0.3-0.5-0.5-1.1-0.5-1.9c0-0.6,0.1-1.1,0.3-1.5
		c0.2-0.5,0.5-0.9,0.9-1.2s0.8-0.6,1.4-0.8c0.5-0.2,1.1-0.3,1.8-0.3c0.6,0,1.2,0.1,1.7,0.2c0.5,0.2,0.9,0.4,1.3,0.7
		c-0.1,0.2-0.2,0.5-0.3,0.7c-0.1,0.3-0.2,0.6-0.2,1h-0.2c-0.1-0.2-0.2-0.4-0.3-0.6c-0.1-0.2-0.3-0.4-0.5-0.6
		c-0.2-0.2-0.4-0.3-0.7-0.5c-0.3-0.1-0.6-0.2-1-0.2c-0.4,0-0.7,0.1-1,0.2c-0.3,0.1-0.6,0.3-0.8,0.5c-0.2,0.2-0.4,0.5-0.5,0.8
		s-0.2,0.6-0.2,1c0,0.6,0.2,1.1,0.5,1.5c0.3,0.4,0.7,0.7,1.2,0.9c0.5,0.2,1,0.5,1.5,0.7c0.5,0.2,1.1,0.4,1.5,0.7
		c0.5,0.3,0.9,0.6,1.2,1.1c0.3,0.4,0.5,1,0.5,1.8c0,0.6-0.1,1.2-0.3,1.8c-0.2,0.6-0.5,1-1,1.4c-0.4,0.4-0.9,0.7-1.6,0.9
		c-0.6,0.2-1.3,0.3-2.1,0.3c-0.8,0-1.5-0.1-2-0.3c-0.5-0.2-1-0.5-1.3-0.8c0.1-0.3,0.2-0.6,0.3-0.8c0-0.2,0.1-0.6,0.1-1h0.2
		C313.1,86,313.2,86.3,313.4,86.5z"/>
	<path class="st1" d="M336.3,75.6c-0.3,0-0.7,0-1.1,0c-0.4,0-0.8,0-1.1,0c-0.4,0-0.8,0-1.1,0.1c-0.4,0-0.7,0.1-1,0.1
		c0.1-0.2,0.1-0.5,0.1-0.6c0-0.1,0-0.4-0.1-0.6c0.9,0,1.8,0,2.6,0.1c0.8,0,1.7,0,2.6,0c0.9,0,1.8,0,2.6,0c0.8,0,1.7,0,2.6-0.1
		c-0.1,0.3-0.1,0.5-0.1,0.6c0,0.2,0,0.4,0.1,0.6c-0.3,0-0.6-0.1-1-0.1c-0.4,0-0.7-0.1-1.1-0.1c-0.4,0-0.8,0-1.1,0
		c-0.4,0-0.8,0-1.1,0c0,1.4-0.1,2.8-0.1,4.2v3.5c0,0.9,0,1.8,0.1,2.6c0,0.9,0.1,1.7,0.1,2.5c-0.3,0-0.6,0-1,0s-0.7,0-1,0
		c0-0.8,0.1-1.7,0.1-2.5c0-0.9,0.1-1.7,0.1-2.6v-3.5C336.4,78.4,336.3,77,336.3,75.6z"/>
	<path class="st1" d="M380.4,87.9c-0.3,0.1-0.6,0.2-0.9,0.3c-0.4,0.1-0.8,0.2-1.2,0.3c-0.5,0.1-0.9,0.1-1.4,0.1
		c-1.1,0-2-0.2-2.9-0.5c-0.9-0.3-1.7-0.8-2.3-1.4c-0.7-0.6-1.2-1.4-1.5-2.3c-0.4-0.9-0.6-1.9-0.6-3.1c0-1.1,0.2-2.2,0.6-3.1
		c0.4-0.9,0.9-1.7,1.6-2.3c0.7-0.6,1.5-1.1,2.4-1.4c0.9-0.3,1.9-0.5,3.1-0.5c0.9,0,1.7,0.1,2.4,0.3c0.7,0.2,1.4,0.4,1.9,0.7
		c-0.1,0.2-0.2,0.4-0.3,0.8c-0.1,0.3-0.1,0.6-0.2,0.8l-0.1,0c-0.1-0.2-0.3-0.3-0.6-0.5c-0.2-0.2-0.5-0.4-0.8-0.6
		c-0.3-0.2-0.7-0.3-1.1-0.5c-0.4-0.1-0.8-0.2-1.3-0.2c-0.8,0-1.5,0.1-2.2,0.4c-0.7,0.3-1.3,0.6-1.8,1.2c-0.5,0.5-0.9,1.2-1.2,2
		c-0.3,0.8-0.4,1.8-0.4,2.9c0,1.1,0.1,2.1,0.4,2.9c0.3,0.8,0.7,1.5,1.2,2c0.5,0.5,1.1,0.9,1.8,1.2c0.7,0.3,1.4,0.4,2.2,0.4
		c0.5,0,0.9-0.1,1.3-0.2c0.4-0.1,0.8-0.3,1.1-0.4c0.3-0.2,0.7-0.3,0.9-0.5c0.3-0.2,0.5-0.4,0.7-0.5l0.1,0.1l-0.2,1.2
		C380.9,87.7,380.7,87.8,380.4,87.9z"/>
	<path class="st1" d="M404.1,77.2c0-0.9-0.1-1.7-0.1-2.6c0.2,0,0.3,0,0.5,0.1c0.2,0,0.3,0,0.5,0c0.2,0,0.3,0,0.5,0
		c0.2,0,0.3,0,0.5-0.1c0,0.9-0.1,1.8-0.1,2.6c0,0.9-0.1,1.7-0.1,2.6v3.5c0,0.9,0,1.8,0.1,2.6c0,0.9,0.1,1.7,0.1,2.5
		c-0.3,0-0.6,0-1,0s-0.7,0-1,0c0-0.8,0.1-1.7,0.1-2.5c0-0.9,0.1-1.7,0.1-2.6v-1.8c-0.7,0-1.4,0-2.1,0c-0.7,0-1.4,0-2.1,0
		c-0.7,0-1.4,0-2.1,0c-0.7,0-1.4,0-2.1,0v1.8c0,0.9,0,1.8,0.1,2.6c0,0.9,0.1,1.7,0.1,2.5c-0.3,0-0.6,0-1,0s-0.7,0-1,0
		c0-0.8,0.1-1.7,0.1-2.5c0-0.9,0.1-1.7,0.1-2.6v-3.5c0-0.9,0-1.8-0.1-2.6c0-0.9-0.1-1.7-0.1-2.6c0.2,0,0.3,0,0.5,0.1
		c0.2,0,0.3,0,0.5,0c0.2,0,0.3,0,0.5,0c0.2,0,0.3,0,0.5-0.1c0,0.9-0.1,1.8-0.1,2.6c0,0.9-0.1,1.7-0.1,2.6v0.7c0.7,0,1.4,0,2.1,0
		c0.7,0,1.4,0,2.1,0c0.7,0,1.4,0,2.1,0c0.7,0,1.4,0,2.1,0v-0.7C404.2,78.9,404.2,78,404.1,77.2z"/>
	<path class="st1" d="M430.4,81.1c0-1.9,0-3.4,0-4.4c0-1,0-1.7-0.1-2.1c0.1,0,0.3,0,0.4,0.1c0.1,0,0.3,0,0.4,0c0.2,0,0.4,0,0.6-0.1
		c0,0.5-0.1,1-0.1,1.7c0,0.7-0.1,1.4-0.1,2.1c0,0.7-0.1,1.5-0.1,2.3c0,0.8,0,1.6-0.1,2.3c0,0.9-0.2,1.7-0.4,2.4
		c-0.3,0.7-0.6,1.3-1.1,1.8c-0.5,0.5-1.1,0.9-1.8,1.1c-0.7,0.3-1.5,0.4-2.4,0.4c-2,0-3.5-0.5-4.4-1.4c-0.9-0.9-1.4-2.4-1.4-4.3
		c0-0.6,0-1.2,0.1-1.7c0-0.5,0.1-1,0.1-1.5c0-1.1,0-2.1,0-3c0-0.9-0.1-1.6-0.1-2.2c0.2,0,0.3,0,0.5,0.1c0.2,0,0.4,0,0.5,0
		c0.1,0,0.3,0,0.4,0s0.3,0,0.4-0.1c0,0.3-0.1,0.7-0.1,1.2c0,0.5-0.1,1-0.1,1.6c0,0.6,0,1.3-0.1,2c0,0.7,0,1.4,0,2.2
		c0,0.5,0,0.9,0,1.4c0,0.5,0.1,1,0.1,1.4c0.1,0.5,0.2,0.9,0.4,1.3c0.2,0.4,0.4,0.8,0.8,1.1c0.3,0.3,0.8,0.6,1.3,0.7
		c0.5,0.2,1.1,0.3,1.9,0.3c0.7,0,1.4-0.1,1.9-0.3s0.9-0.5,1.2-0.8c0.3-0.3,0.6-0.8,0.8-1.2c0.2-0.5,0.3-0.9,0.4-1.4
		c0.1-0.5,0.1-1,0.1-1.5C430.4,82,430.4,81.5,430.4,81.1z"/>
	<path class="st1" d="M445.6,79.8c0-0.9,0-1.8-0.1-2.6c0-0.9-0.1-1.7-0.1-2.6c0.4,0,0.8,0,1.1,0.1c0.4,0,0.8,0,1.1,0s0.8,0,1.1-0.1
		c0.4,0,0.8,0,1.1,0c0.6,0,1.1,0.1,1.6,0.2c0.5,0.1,1,0.3,1.3,0.5c0.4,0.2,0.7,0.6,0.9,1c0.2,0.4,0.3,0.9,0.3,1.5
		c0,0.6-0.1,1.2-0.4,1.7c-0.3,0.5-0.6,0.8-1.1,1.2c-0.4,0.3-0.9,0.5-1.3,0.7c-0.5,0.2-0.9,0.3-1.3,0.3c0.2,0.2,0.4,0.5,0.7,0.8
		c0.3,0.4,0.6,0.8,0.9,1.2s0.7,0.9,1.1,1.4c0.4,0.5,0.7,0.9,1.1,1.4s0.7,0.8,1,1.2c0.3,0.4,0.6,0.6,0.7,0.8c-0.2,0-0.4,0-0.6,0
		c-0.2,0-0.4,0-0.6,0c-0.2,0-0.4,0-0.6,0c-0.2,0-0.4,0-0.6,0c-0.2-0.3-0.5-0.7-0.9-1.3c-0.4-0.6-0.9-1.2-1.4-1.8
		c-0.5-0.6-1-1.3-1.5-1.9c-0.5-0.6-1-1.2-1.4-1.6h-0.8v1.5c0,0.9,0,1.8,0.1,2.6c0,0.9,0.1,1.7,0.1,2.5c-0.3,0-0.6,0-1,0s-0.7,0-1,0
		c0-0.8,0.1-1.7,0.1-2.5c0-0.9,0.1-1.7,0.1-2.6V79.8z M447.3,80.9c0.2,0,0.4,0.1,0.6,0.1c0.2,0,0.5,0,0.7,0c0.4,0,0.9,0,1.3-0.1
		s0.9-0.3,1.2-0.5c0.4-0.2,0.7-0.6,0.9-0.9c0.2-0.4,0.4-0.9,0.4-1.5c0-0.5-0.1-1-0.3-1.3c-0.2-0.3-0.4-0.6-0.8-0.8
		c-0.3-0.2-0.6-0.3-1-0.4c-0.4-0.1-0.7-0.1-1.1-0.1c-0.5,0-0.9,0-1.2,0c-0.3,0-0.6,0-0.8,0.1c0,0.7-0.1,1.5-0.1,2.2
		c0,0.7,0,1.5,0,2.2V80.9z"/>
	<path class="st1" d="M477.9,87.9c-0.3,0.1-0.6,0.2-0.9,0.3s-0.8,0.2-1.2,0.3c-0.5,0.1-0.9,0.1-1.4,0.1c-1.1,0-2-0.2-2.9-0.5
		c-0.9-0.3-1.7-0.8-2.3-1.4c-0.7-0.6-1.2-1.4-1.5-2.3c-0.4-0.9-0.6-1.9-0.6-3.1c0-1.1,0.2-2.2,0.6-3.1c0.4-0.9,0.9-1.7,1.6-2.3
		c0.7-0.6,1.5-1.1,2.4-1.4c0.9-0.3,1.9-0.5,3.1-0.5c0.9,0,1.7,0.1,2.4,0.3c0.7,0.2,1.4,0.4,1.9,0.7c-0.1,0.2-0.2,0.4-0.3,0.8
		c-0.1,0.3-0.1,0.6-0.2,0.8l-0.1,0c-0.1-0.2-0.3-0.3-0.6-0.5c-0.2-0.2-0.5-0.4-0.8-0.6c-0.3-0.2-0.7-0.3-1.1-0.5
		c-0.4-0.1-0.8-0.2-1.3-0.2c-0.8,0-1.5,0.1-2.2,0.4c-0.7,0.3-1.3,0.6-1.8,1.2c-0.5,0.5-0.9,1.2-1.2,2c-0.3,0.8-0.4,1.8-0.4,2.9
		c0,1.1,0.1,2.1,0.4,2.9c0.3,0.8,0.7,1.5,1.2,2c0.5,0.5,1.1,0.9,1.8,1.2c0.7,0.3,1.4,0.4,2.2,0.4c0.5,0,0.9-0.1,1.3-0.2
		c0.4-0.1,0.8-0.3,1.1-0.4c0.3-0.2,0.7-0.3,0.9-0.5c0.3-0.2,0.5-0.4,0.7-0.5l0.1,0.1l-0.2,1.2C478.4,87.7,478.2,87.8,477.9,87.9z"/>
	<path class="st1" d="M501.6,77.2c0-0.9-0.1-1.7-0.1-2.6c0.2,0,0.3,0,0.5,0.1c0.2,0,0.3,0,0.5,0c0.2,0,0.3,0,0.5,0
		c0.2,0,0.3,0,0.5-0.1c0,0.9-0.1,1.8-0.1,2.6c0,0.9-0.1,1.7-0.1,2.6v3.5c0,0.9,0,1.8,0.1,2.6c0,0.9,0.1,1.7,0.1,2.5
		c-0.3,0-0.6,0-1,0c-0.3,0-0.7,0-1,0c0-0.8,0.1-1.7,0.1-2.5c0-0.9,0.1-1.7,0.1-2.6v-1.8c-0.7,0-1.4,0-2.1,0c-0.7,0-1.4,0-2.1,0
		c-0.7,0-1.4,0-2.1,0c-0.7,0-1.4,0-2.1,0v1.8c0,0.9,0,1.8,0.1,2.6c0,0.9,0.1,1.7,0.1,2.5c-0.3,0-0.6,0-1,0c-0.3,0-0.7,0-1,0
		c0-0.8,0.1-1.7,0.1-2.5c0-0.9,0.1-1.7,0.1-2.6v-3.5c0-0.9,0-1.8-0.1-2.6c0-0.9-0.1-1.7-0.1-2.6c0.2,0,0.3,0,0.5,0.1
		c0.2,0,0.3,0,0.5,0c0.2,0,0.3,0,0.5,0c0.2,0,0.3,0,0.5-0.1c0,0.9-0.1,1.8-0.1,2.6c0,0.9-0.1,1.7-0.1,2.6v0.7c0.7,0,1.4,0,2.1,0
		c0.7,0,1.4,0,2.1,0c0.7,0,1.4,0,2.1,0c0.7,0,1.4,0,2.1,0v-0.7C501.7,78.9,501.7,78,501.6,77.2z"/>
</g>
<g>
	<g>
		<defs>
			<circle id="SVGID_1_" cx="60.8" cy="55.3" r="52.6"/>
		</defs>
		<clipPath id="SVGID_2_">
			<use xlink:href="#SVGID_1_"  style="overflow:visible;"/>
		</clipPath>
		<g id="GXUM5I.tif_1_" class="st2">
			<g>
				<path class="st3" d="M115.3,111.2c-36.7,0-73.3,0-110,0c0-36.7,0-73.3,0-110c36.7,0,73.3,0,110,0
					C115.3,37.9,115.3,74.5,115.3,111.2z M114.8,50.6L114.8,50.6c-0.1-0.9-0.2-1.8-0.3-2.6c-0.5-2.2-0.9-4.4-1.5-6.5
					c-1-3.7-2.5-7.3-4.3-10.7c-3.2-6.1-7.4-11.4-12.6-15.9c-5.4-4.6-11.4-8.1-18.1-10.5c-4-1.4-8.1-2.4-12.4-2.8
					c-1.3-0.1-2.6-0.3-3.8-0.3c-2.5,0-4.9-0.1-7.4,0.2C53.2,1.7,52,1.8,50.9,2c-1.5,0.3-3,0.5-4.5,0.9C41.8,4,37.3,5.7,33.1,8
					c-5.3,2.9-10,6.6-14,11.1c-3.2,3.4-5.5,7.4-7.6,11.6c-1.9,3.7-3.3,7.5-4.4,11.5c-0.2,0.8-0.7,1.4-0.5,2.3
					c0.1,0.4-0.2,0.9-0.3,1.4c-0.2,1.2-0.4,2.5-0.6,3.7c-0.1,1.2-0.2,2.3-0.3,3.5c0,2.2-0.1,4.4,0,6.7c0.1,1.4,0.3,2.7,0.5,4.1
					c0.3,1.6,0.5,3.2,0.9,4.7c0.7,3.2,1.8,6.3,3.2,9.2c2.3,5,5.2,9.7,8.7,13.8c2.2,2.5,4.5,4.8,7.1,6.9c3.3,2.6,6.8,5,10.6,6.9
					c3.8,1.8,7.8,3.3,12,4.2c1.4,0.3,2.8,0.6,4.3,0.8c1.1,0.2,2.3,0.3,3.4,0.3c1.4,0.1,2.7,0.2,4.1,0.3c1.3,0,2.6-0.1,3.8-0.2
					c1.1-0.1,2.2-0.1,3.3-0.3c1.5-0.2,2.9-0.5,4.4-0.8c4.3-0.8,8.5-2.3,12.4-4.1c7.6-3.6,14-8.8,19.3-15.3
					c3.9-4.9,6.8-10.3,8.8-16.3c1.3-3.9,2.2-7.8,2.5-11.9c0.1-1.4,0.2-2.8,0.3-4.2c0-0.5,0-1,0-1.6c0-1,0-2-0.1-3
					C115,52.5,114.9,51.5,114.8,50.6z"/>
				<path d="M114.8,50.6c0.1,0.9,0.2,1.8,0.3,2.8c0.1,1,0.1,2,0.1,3c0,0.5,0,1,0,1.6c-0.1,1.4-0.1,2.8-0.3,4.2
					c-0.4,4.1-1.3,8-2.5,11.9c-2,5.9-4.9,11.4-8.8,16.3c-5.2,6.6-11.6,11.7-19.3,15.3c-4,1.9-8.1,3.3-12.4,4.1
					c-1.4,0.3-2.9,0.6-4.4,0.8c-1.1,0.2-2.2,0.2-3.3,0.3c-1.3,0.1-2.6,0.2-3.8,0.2c-1.4,0-2.7-0.1-4.1-0.3c-1.1-0.1-2.3-0.2-3.4-0.3
					c-1.4-0.2-2.8-0.5-4.3-0.8c-4.2-0.9-8.2-2.3-12-4.2c-3.8-1.8-7.3-4.2-10.6-6.9c-2.6-2.1-4.9-4.4-7.1-6.9
					c-3.6-4.2-6.5-8.8-8.7-13.8c-1.3-3-2.4-6-3.2-9.2c-0.3-1.6-0.6-3.1-0.9-4.7c-0.2-1.3-0.4-2.7-0.5-4.1c-0.1-2.2-0.1-4.4,0-6.7
					c0-1.2,0.1-2.3,0.3-3.5C6,48.3,6.2,47,6.4,45.8c0.1-0.5,0.3-1,0.3-1.4c-0.2-0.9,0.3-1.5,0.5-2.3c1-4,2.5-7.8,4.4-11.5
					c2.1-4.1,4.5-8.1,7.6-11.6c4.1-4.5,8.7-8.1,14-11.1c4.2-2.3,8.6-4,13.3-5.2c1.5-0.4,3-0.6,4.5-0.9c1.1-0.2,2.3-0.3,3.4-0.4
					c2.5-0.3,4.9-0.3,7.4-0.2c1.3,0,2.6,0.2,3.8,0.3C69.8,2,73.9,3,77.9,4.4c6.7,2.3,12.7,5.9,18.1,10.5c5.2,4.5,9.4,9.8,12.6,15.9
					c1.8,3.4,3.3,6.9,4.3,10.7c0.6,2.2,1,4.3,1.5,6.5C114.7,48.8,114.7,49.7,114.8,50.6C114.8,50.6,114.8,50.6,114.8,50.6z
					 M39.8,105.6c0.3,0.1,0.5,0.2,0.7,0.3c8.3,3.3,16.8,4.5,25.7,3.7c6.2-0.6,12.1-2.2,17.7-4.9c3.8-1.8,7.3-4,10.5-6.6
					c0.4-0.3,0.7-0.7,0.8-1.2c0.5-2.1,1.1-4.2,1.6-6.3c0.9-3.6,1.5-7.3,2-11c0-0.3,0-0.5-0.3-0.6c-0.5-0.2-1-0.3-1.5-0.5
					c-5.4-1.9-10.9-3.2-16.6-3.8c-0.3,0-0.6-0.1-0.8,0.3C75.8,82.1,70.5,88,64.2,93c-7.1,5.6-15,9.6-23.6,12.4
					C40.4,105.4,40.2,105.5,39.8,105.6z M11.5,32.5c0.2,0,0.2,0,0.3,0c1.5,0,3.1-0.1,4.6-0.1c1.8,0,3.7,0.2,5.5,0.3
					c2.3,0.2,4.5,0.2,6.8,0.6c6,1.1,11.7,2.9,17.3,5.4c1.6,0.7,3.2,1.4,4.6,2.5c1.7,1.3,3.3,2.7,4.6,4.4c1.6,2.1,3.1,4.3,4.5,6.6
					c2,3.1,4.2,6,6.5,8.8c0.8,1,1.7,1.9,2.8,2.6c2.7,1.6,5.7,2.4,8.7,3c1.3,0.2,2.6-0.2,3.9-0.6c0.2-0.1,0.3-0.3,0.3-0.5
					c0.3-1,0.6-2.1,0.8-3.1c0.8-3.1,1.2-6.2,1.3-9.3c0-0.3,0-0.5-0.3-0.7c-2.2-1.3-4.3-2.6-6.5-3.8c-0.5-0.3-1.1-0.5-1.7-0.6
					c-1.1-0.3-2.3-0.4-3.4-0.6c-3.5-0.8-7-1.8-10.2-3.4c-4.8-2.4-8.9-5.7-12.2-9.9c-0.8-1.1-1.8-2-2.7-3c-0.7-0.7-1.5-1.4-2.3-2
					c-1.4-1.1-2.8-2.3-4.3-3.4c-1.9-1.4-4-2.4-6.2-3.2c-3.6-1.2-7.1-2.5-10.7-3.4c-0.5-0.1-1-0.2-1.4-0.3c-0.2,0-0.5,0.1-0.6,0.2
					c-2.8,2.8-5.3,5.9-7.5,9.2c-0.3,0.4-0.5,0.7-0.7,1.1c-0.2,0.8-0.7,1.4-1.1,2C11.9,31.6,11.8,32.1,11.5,32.5z M28.2,82.6
					c-0.3,0-0.5-0.1-0.7-0.1c-0.9-0.1-1.9-0.1-2.8-0.2c-1.5-0.1-2.9-0.6-4.4-1.1c-0.2-0.1-0.4,0-0.7,0c-0.2,0-0.4,0-0.5,0
					s-0.2-0.3-0.1-0.4c0.1-0.2,0.2-0.5,0.3-0.7c0.8-1.3,1.7-2.6,2.5-3.9c1.4-2,2.9-3.9,4.8-5.5c3.4-2.9,7.2-5,11.3-6.9
					c0.9-0.4,0.8-0.2,0.6-1.2c-1-3.7-2-7.3-2.9-11c-0.1-0.2-0.1-0.4-0.2-0.6c-0.2,0-0.3,0-0.4,0.1c-2,0.7-4,1.3-5.9,2.1
					c-6,2.5-11.5,5.8-16.3,10.1c-1.6,1.4-3.1,2.9-4.7,4.4c-0.2,0.2-0.3,0.3-0.2,0.6c1.2,4.6,2.8,8.9,5.1,13.1
					c2.1,3.9,4.7,7.4,7.7,10.7c0.5,0.6,1,1.1,1.6,1.7C23.7,89.8,25.9,86.2,28.2,82.6z M89.2,51.1c3.1-0.1,6.1-0.6,9-1.3
					c0.3-0.1,0.4-0.2,0.3-0.5c-0.7-5.1-1.9-10.1-3.6-15c-1.8-5.2-3.9-10.3-6.7-15c-2.6-4.5-5.6-8.6-9.2-12.3
					c-0.3-0.3-0.8-0.6-1.2-0.8c-2.4-0.9-4.8-1.6-7.3-2.1c-2.2-0.4-4.4-0.7-6.7-1c-0.3,0-0.4,0.1-0.5,0.3c-0.1,0.4,0.1,0.5,0.3,0.7
					c6.2,6,11.2,12.7,15.2,20.3c4.3,8.1,6.6,16.7,6.7,25.9c0,0.4,0.2,0.5,0.5,0.5C87.2,51,88.2,51.1,89.2,51.1z M63,5.6
					c0,0.1-0.1,0.1-0.1,0.2c-0.1,0.7-0.2,1.4-0.3,2.1c-0.4,5.7,0.3,11.2,2.2,16.6c1.4,4.3,3.4,8.3,5.8,12.1
					c2.4,3.8,5.2,7.3,8.5,10.4c1.4,1.3,3,2.2,4.7,2.9c0.1,0,0.2,0.1,0.3,0.1c0-0.2,0-0.4,0-0.6c-0.1-1.1-0.1-2.2-0.2-3.3
					c-0.7-7.5-3-14.5-6.3-21.2C74.4,18.5,70,12.8,65,7.6C64.4,7,63.7,6.3,63,5.6z M99.8,49.3c0.1,0,0.2,0,0.3,0c0.1,0,0.2,0,0.3-0.1
					c4-1.2,7.8-2.7,11.5-4.6c0.4-0.2,0.5-0.4,0.4-0.8c-0.6-1.9-1.1-3.8-1.8-5.7c-3.7-9.6-9.6-17.6-17.7-23.9
					c-3.3-2.6-7-4.8-10.8-6.6c-0.2-0.1-0.4-0.1-0.6-0.2c0.1,0.2,0.1,0.2,0.1,0.3c0.1,0.1,0.2,0.3,0.4,0.4c2.8,2.8,5.1,6,7.1,9.4
					c5.4,8.9,8.5,18.7,10.4,28.8C99.5,47.4,99.7,48.3,99.8,49.3z M7.4,66.5c0.1,0,0.1,0,0.2,0.1c0.1-0.1,0.2-0.3,0.3-0.4
					c2.7-2.8,5.6-5.4,8.8-7.7c6.4-4.6,13.5-7.9,21.2-9.7c2.8-0.6,5.7-1.1,8.5-1.2c2.2-0.1,4.3,0,6.4,0.1c0.7,0,1.3,0.2,2.1,0.3
					c-0.1-0.2-0.2-0.3-0.3-0.5c-1-1.4-2.3-2.6-3.5-3.7c-0.8-0.7-1.6-1.3-2.7-1.2c-0.1,0-0.1,0-0.2,0c-2.5-0.3-4.9-0.7-7.4-0.6
					c-2.2,0.1-4.4,0.2-6.7,0.4c-3,0.2-5.9,0.7-8.7,1.7c-6.7,2.2-12.9,5.3-18.7,9.4c-0.3,0.2-0.4,0.4-0.4,0.8
					c-0.1,3.1,0.2,6.2,0.6,9.3C7.1,64.5,7.2,65.5,7.4,66.5z M55,97.7c-0.1-0.1-0.1-0.2-0.2-0.3c-0.5-0.6-1-1.3-1.4-1.9
					c-1.1-1.8-2.3-3.6-3.3-5.5c-1.4-2.4-2.7-4.9-4-7.4c-0.1-0.2-0.3-0.3-0.5-0.3c-0.9,0.1-1.9,0.2-2.8,0.3c-2.1,0.1-4.3,0.1-6.4,0.1
					c-0.6,0-0.9,0.2-1.1,0.7c-1.1,2.3-2.3,4.7-3.4,7c-1.3,2.7-2.3,5.5-3.1,8.5c-0.1,0.3,0,0.6,0.3,0.8c2.9,2,5.9,3.7,9.1,5.2
					c0.2,0.1,0.5,0.1,0.8,0c4.8-1.6,9.5-3.6,13.9-6C53.5,98.5,54.2,98.1,55,97.7z M114,56.7C114,56.7,114,56.7,114,56.7
					c-0.1-0.8-0.1-1.5-0.2-2.3c-0.1-2.7-0.5-5.4-1-8c-0.1-0.4-0.2-0.4-0.5-0.3c-1.2,0.6-2.5,1.2-3.7,1.8c-2.6,1.2-5.3,2.2-8.1,2.9
					c-0.3,0.1-0.4,0.2-0.4,0.5c0.3,2.8,0.6,5.5,0.7,8.3c0.2,4,0.2,8,0,12.1c-0.1,1-0.2,2-0.2,3s-0.2,2-0.3,3c0,0.3,0.1,0.4,0.4,0.5
					c2.4,0.7,4.7,1.7,6.9,2.8c0.5,0.3,0.5,0.3,0.8-0.3c2.7-5.5,4.5-11.3,5.2-17.5C113.7,61.1,113.9,58.9,114,56.7z M42.8,5.6
					c-0.1,0-0.2,0-0.3,0c-1.8,0.7-3.6,1.4-5.4,2.2c-0.2,0.1-0.3,0.3-0.3,0.4c-0.6,2.1-0.9,4.1-1,6.3c-0.1,2.1-0.2,4.3-0.3,6.4
					c0,0.3,0.1,0.4,0.4,0.5c1.3,0.6,2.6,1.1,3.8,1.8c1.6,1,3,2.2,4.6,3.3c2.6,1.9,4.9,4,6.9,6.5c3,3.9,6.8,6.9,11.2,9.2
					c3.3,1.7,6.8,2.7,10.4,3.5c0.1,0,0.2,0,0.3,0c-0.4-0.4-0.8-0.6-1.1-0.9c-5-3.7-9.6-8-13.7-12.7c-4-4.5-7.7-9.3-10.5-14.6
					c-1.9-3.4-3.5-6.9-4.5-10.7C43,6.5,42.9,6,42.8,5.6z M47.1,82.1c0.1,0.2,0.2,0.4,0.3,0.5c0.5,0.8,1,1.6,1.4,2.4
					c1.2,2.2,2.3,4.5,3.6,6.7c1,1.7,2,3.5,3.4,4.9c0.3,0.3,0.5,0.3,0.9,0.1c3.9-2.5,7.6-5.3,11-8.5c4.1-3.9,7.6-8.4,10.3-13.3
					c0.1-0.1,0.1-0.3,0.2-0.5c-0.2,0-0.3-0.1-0.3-0.1c-2.6-0.2-5.3-0.3-7.9-0.4c-0.3,0-0.7,0.1-1,0.3c-1.5,0.8-3,1.7-4.5,2.5
					c-4.3,2.5-9,3.9-13.9,4.8C49.5,81.6,48.3,81.8,47.1,82.1z M6.3,52.2c0.1-0.1,0.2-0.1,0.2-0.1c3.6-2.5,7.4-4.6,11.3-6.4
					c3.1-1.4,6.2-2.8,9.5-3.6c2.2-0.6,4.4-1,6.7-1.2c1.6-0.2,3.2-0.2,4.7-0.4c1.9-0.2,3.9-0.2,5.9,0.1c0.5,0.1,1,0.1,1.5,0.1
					c0,0,0-0.1,0-0.1c-0.1-0.1-0.3-0.1-0.4-0.2c-3.8-1.8-7.8-3.1-11.9-4.2c-2.8-0.8-5.7-1.5-8.6-1.6c-2.5-0.2-5-0.3-7.5-0.4
					c-2.1-0.1-4.3-0.3-6.4,0.1c-0.2,0-0.3,0-0.5,0c-0.3-0.1-0.4,0-0.4,0.2c-0.2,0.4-0.3,0.9-0.5,1.3c-0.7,2.3-1.5,4.5-2.2,6.8
					c-0.1,0.3,0,0.6-0.1,0.9c0,0.2-0.1,0.4-0.2,0.6c-0.1,0.3-0.3,0.5-0.3,0.7c-0.3,1.5-0.5,2.9-0.7,4.4C6.5,50.1,6.4,51.1,6.3,52.2z
					 M65.2,62.5c0,0,0.1-0.1,0.1-0.1c-3.7-4.1-6.5-8.8-9.6-13.1c-0.4,0.1-0.8,0.3-1.1,0.3c-0.8,0-1.5-0.1-2.3-0.2
					c-5.2-0.4-10.4,0.1-15.5,1.4c-0.5,0.1-0.6,0.1-0.4,0.7c0.4,1.4,0.8,2.8,1.2,4.1c0.7,2.4,1.4,4.8,2.1,7.2
					c0.1,0.3,0.3,0.4,0.6,0.3c2.2-0.9,4.5-1.5,6.9-1.7c2.3-0.2,4.5-0.5,6.8-0.5c3.4,0,6.8,0.4,10,1.4C64.5,62.3,64.8,62.4,65.2,62.5
					z M75.5,67.8C75.4,67.7,75.4,67.7,75.5,67.8c-0.2-0.1-0.4-0.2-0.5-0.2c-1.8-0.5-3.7-1-5.4-1.9c-0.8-0.4-1.6-0.7-2.5-1
					c-3.3-1-6.6-1.9-10-2.1c-0.4,0-0.8-0.2-1,0.3C56,63,55.8,63,55.7,63.1c-0.4,0.2-0.9,0.3-1.3,0.5c-1.6,0.9-3.2,1.8-4.7,2.8
					c-4.2,2.8-7.7,6.2-10.4,10.4c-0.1,0.1-0.2,0.3-0.3,0.5c0.5-0.2,0.9-0.3,1.3-0.4c4.1-0.9,8.1-1.9,12.2-2.8
					c5.4-1.2,10.9-1.9,16.5-1.9c0.3,0,0.5-0.1,0.8-0.2c2-1.1,3.8-2.5,5.5-3.9C75.3,68,75.4,67.9,75.5,67.8z M99.8,62.5
					c0-1.1-0.1-1.2-1.2-1.4c-0.1,0-0.2,0-0.3,0c-1.3,0-2.5,0-3.8,0c-0.3,0-0.7,0-1,0.1c-1.1,0.3-2.1,0.8-3.1,1.4
					c-2.3,1.5-4.6,3.2-7.2,4.3c-0.2,0.1-0.3,0.3-0.4,0.5c-0.8,1.8-1.5,3.5-2.2,5.3c-0.1,0.3-0.1,0.4,0.2,0.5c3,0.4,5.9,1,8.9,1.8
					c2.9,0.8,5.9,1.8,8.8,2.7c0.6,0.2,0.6,0.2,0.6-0.4c0-0.4,0.1-0.8,0.1-1.2c0.2-2.6,0.4-5.1,0.5-7.7
					C99.9,66.3,99.8,64.4,99.8,62.5z M73,43.1c0-0.1,0-0.1,0-0.1c-0.1-0.1-0.2-0.2-0.2-0.3c-2.3-2.8-4.2-5.9-5.8-9.1
					c-2.5-4.9-4.2-10-5.2-15.4C61,13.7,60.8,9.4,62,5c0-0.2,0-0.4-0.2-0.5c-0.5-0.5-0.9-0.9-1.5-1.3c-0.2-0.2-0.5-0.3-0.7-0.3
					C57.8,3,55.9,3.1,54,3.2c-0.1,0-0.3,0.2-0.3,0.3c-0.2,0.7-0.3,1.4-0.4,2.2c-0.3,2.7-0.1,5.3,0.5,8c0.8,3.8,2.3,7.4,4.1,10.9
					c3.8,6.9,8.6,12.9,14.6,18.1C72.6,42.7,72.8,42.9,73,43.1z M52.4,62.6c0,0,0-0.1,0-0.1c-0.9,0.1-1.8,0.1-2.7,0.2
					c-2.1,0.2-4.2,0.3-6.3,1c-4.6,1.4-8.8,3.5-12.8,6.2c-2.3,1.6-4.4,3.4-6.1,5.7c-0.7,0.9-1.3,1.8-2,2.7c-0.4,0.5-0.8,1-1.2,1.5
					c0.1,0.1,0.2,0.1,0.3,0.2c0.8,0.2,1.7,0.5,2.5,0.6c1.6,0.2,3.3,0.3,4.9,0.4c0.2,0,0.4-0.1,0.6-0.3c3.2-4.3,7-7.9,11.4-10.9
					c3.3-2.3,6.7-4.3,10-6.4C51.4,63.1,51.9,62.9,52.4,62.6z M62.1,34.1C62.1,34.1,62.1,34.1,62.1,34.1c0-0.2-0.1-0.4-0.2-0.5
					c-2.3-3.2-4.4-6.5-6-10.1c-2-4.3-3.5-8.7-3.7-13.5c-0.1-1.4,0.1-2.8,0.2-4.1c0.1-0.9,0.3-1.7,0.5-2.6c-0.1,0-0.3,0-0.4,0
					c-2.8,0.4-5.5,1-8.2,1.8c-0.5,0.2-0.6,0.2-0.4,0.7c1.1,3.9,2.9,7.6,5,11.1c3.2,5.4,6.9,10.3,11.1,14.9
					C60.7,32.6,61.4,33.4,62.1,34.1z M36.7,81c0,0.1,0,0.1,0.1,0.2c2.4-0.1,4.9,0,7.3-0.2c2.8-0.3,5.7-0.8,8.5-1.3
					c1.8-0.4,3.7-0.9,5.4-1.5c2.8-0.9,5.3-2.3,7.9-3.8c0.1-0.1,0.2-0.1,0.3-0.2C65.9,74,65.8,74,65.7,74c-2.1,0.2-4.2,0.3-6.3,0.6
					c-3.5,0.6-6.9,1.2-10.4,1.9c-3.6,0.8-7.2,1.6-10.7,2.7C37.4,79.5,37.1,80.3,36.7,81z M97.8,59.6c0,0,0-0.1,0.1-0.1
					c-0.3-0.3-0.5-0.6-0.7-0.9c-0.5-0.5-1-1-1.5-1.5c-1.4-1.4-2.9-2.7-4.8-3.4c-1.5-0.6-3-1.1-4.5-1.3c-0.5-0.1-0.5-0.1-0.6,0.4
					c-0.1,4-0.8,7.8-1.8,11.7c0,0.1-0.1,0.3-0.1,0.5c0.8-0.4,1.4-0.8,2.1-1.2c1.4-0.9,2.7-1.8,4.1-2.7c1-0.7,2.1-1.2,3.3-1.3
					c1.3-0.1,2.6-0.2,3.8-0.3C97.4,59.5,97.6,59.6,97.8,59.6z M35.6,8.6c-2.3,0.6-11.6,7.2-12.7,9c3.9,1.1,7.8,2.2,11.8,3.3
					C34.6,16.8,34.7,12.7,35.6,8.6z M96.8,95.9c0.2,0,0.2,0,0.2,0c0.1,0,0.1-0.1,0.2-0.1c4-3.7,7.4-8,10-12.8
					c0.2-0.3,0.1-0.4-0.2-0.6c-1.9-1-3.9-1.8-5.9-2.5c-0.3-0.1-0.7-0.2-1-0.4C99.4,85,98.4,90.5,96.8,95.9z M27.2,98.2
					c1.6-5.4,3.8-10.5,6.5-15.5c-0.2,0-0.4,0-0.5,0c-0.8,0-1.7,0-2.5,0c-0.3,0-0.6,0.1-0.8,0.3c-2.4,3.7-4.7,7.5-6.2,11.7
					c-0.1,0.3-0.1,0.4,0.1,0.6c1,0.8,1.9,1.7,2.9,2.5C26.8,98,27,98.1,27.2,98.2z M98.7,51.5c-1.2,0.3-2.3,0.6-3.4,0.8
					c-0.8,0.2-1.6,0.3-2.3,0.4c-0.2,0-0.3,0.2-0.5,0.3c0.1,0.1,0.2,0.3,0.3,0.4c0.4,0.3,0.8,0.7,1.2,1c1.6,1.3,3.1,2.7,4.7,4
					c0.2,0.2,0.4,0.3,0.7,0.4c0,0,0.1-0.1,0.1-0.1C99.3,56.3,99.1,53.9,98.7,51.5z M72.1,72.3c0.1,0,0.2,0.1,0.2,0.1
					c2.1,0.2,4.3,0.3,6.4,0.5c0.3,0,0.4-0.1,0.5-0.3c0.6-1.4,1.2-2.8,1.8-4.3c0.1-0.1,0.1-0.3,0.2-0.5c-0.3,0.1-0.5,0.1-0.7,0.2
					c-0.7,0.1-1.3,0.3-2,0.3c-1-0.1-1.6,0.2-2.3,0.9c-1.1,1-2.4,1.9-3.6,2.8C72.4,72,72.3,72.1,72.1,72.3z M31.2,81.2
					c0.3,0,0.6,0.1,0.8,0.1c0.8,0,1.7,0,2.6-0.1c0.1,0,0.3-0.1,0.4-0.3c0.7-1,1.3-2,1.9-3.1c1.2-1.9,2.5-3.8,4-5.5
					c0.2-0.2,0.5-0.4,0.3-0.8c-0.2,0.1-0.3,0.1-0.4,0.2c-1.6,1.3-3.3,2.6-4.8,4c-1.6,1.5-3.2,3-4.5,4.8
					C31.4,80.7,31.3,80.9,31.2,81.2z"/>
				<path class="st4" d="M39.8,105.6c0.3-0.1,0.5-0.2,0.7-0.3c8.6-2.8,16.5-6.8,23.6-12.4c6.4-5,11.6-11,15.4-18.1
					c0.2-0.4,0.5-0.3,0.8-0.3c5.7,0.6,11.2,1.9,16.6,3.8c0.5,0.2,1,0.4,1.5,0.5c0.3,0.1,0.4,0.2,0.3,0.6c-0.5,3.7-1.1,7.4-2,11
					c-0.5,2.1-1.1,4.2-1.6,6.3c-0.1,0.5-0.4,0.9-0.8,1.2c-3.3,2.6-6.8,4.8-10.5,6.6c-5.6,2.7-11.5,4.3-17.7,4.9
					c-8.8,0.8-17.4-0.3-25.7-3.7C40.4,105.8,40.2,105.7,39.8,105.6z"/>
				<path class="st3" d="M11.5,32.5c0.3-0.5,0.4-0.9,0.7-1.3c0.4-0.6,0.9-1.2,1.1-2c0.1-0.4,0.4-0.8,0.7-1.1
					c2.2-3.3,4.7-6.4,7.5-9.2c0.1-0.1,0.4-0.2,0.6-0.2c0.5,0.1,1,0.2,1.4,0.3c3.6,0.9,7.2,2.3,10.7,3.4c2.2,0.8,4.3,1.7,6.2,3.2
					c1.4,1.1,2.9,2.2,4.3,3.4c0.8,0.6,1.6,1.3,2.3,2c0.9,0.9,1.9,1.9,2.7,3c3.3,4.2,7.4,7.5,12.2,9.9c3.2,1.6,6.7,2.6,10.2,3.4
					c1.1,0.3,2.3,0.4,3.4,0.6c0.6,0.1,1.2,0.3,1.7,0.6c2.2,1.2,4.3,2.5,6.5,3.8c0.3,0.2,0.3,0.4,0.3,0.7c-0.1,3.1-0.6,6.3-1.3,9.3
					c-0.3,1-0.5,2.1-0.8,3.1c-0.1,0.2-0.2,0.4-0.3,0.5c-1.3,0.4-2.5,0.9-3.9,0.6c-3.1-0.5-6-1.3-8.7-3c-1.1-0.7-1.9-1.6-2.8-2.6
					c-2.3-2.8-4.5-5.7-6.5-8.8c-1.4-2.2-2.9-4.4-4.5-6.6c-1.3-1.7-3-3.1-4.6-4.4c-1.4-1.1-3-1.8-4.6-2.5c-5.5-2.4-11.3-4.3-17.3-5.4
					c-2.2-0.4-4.5-0.4-6.8-0.6c-1.8-0.1-3.7-0.3-5.5-0.3c-1.5,0-3.1,0.1-4.6,0.1C11.8,32.5,11.7,32.5,11.5,32.5z"/>
				<path class="st5" d="M28.2,82.6c-2.3,3.6-4.5,7.3-5.9,11.4c-0.6-0.6-1.1-1.1-1.6-1.7c-3-3.3-5.6-6.8-7.7-10.7
					C10.7,77.4,9,73,7.9,68.5c-0.1-0.3,0-0.5,0.2-0.6c1.6-1.5,3.1-3,4.7-4.4c4.9-4.3,10.4-7.6,16.3-10.1c1.9-0.8,4-1.4,5.9-2.1
					c0.1,0,0.3-0.1,0.4-0.1c0.1,0.2,0.1,0.4,0.2,0.6c1,3.7,2,7.3,2.9,11c0.3,1,0.3,0.8-0.6,1.2c-4,1.8-7.9,3.9-11.3,6.9
					c-1.8,1.6-3.4,3.5-4.8,5.5c-0.9,1.3-1.7,2.6-2.5,3.9c-0.1,0.2-0.2,0.4-0.3,0.7c0,0.1,0,0.4,0.1,0.4c0.1,0.1,0.3,0,0.5,0
					c0.2,0,0.5-0.1,0.7,0c1.4,0.5,2.8,0.9,4.4,1.1c0.9,0.1,1.9,0.1,2.8,0.2C27.7,82.5,27.9,82.6,28.2,82.6z"/>
				<path class="st4" d="M89.2,51.1c-1-0.1-2-0.2-3-0.2c-0.4,0-0.5-0.2-0.5-0.5c-0.1-9.2-2.5-17.8-6.7-25.9
					c-4-7.6-9.1-14.4-15.2-20.3c-0.2-0.2-0.4-0.3-0.3-0.7C63.5,3.1,63.6,3,63.9,3c2.2,0.3,4.5,0.6,6.7,1c2.5,0.5,4.9,1.2,7.3,2.1
					c0.4,0.2,0.9,0.4,1.2,0.8c3.6,3.7,6.6,7.9,9.2,12.3c2.8,4.8,4.9,9.8,6.7,15c1.7,4.9,2.8,9.9,3.6,15c0,0.3,0,0.5-0.3,0.5
					C95.3,50.6,92.3,51.1,89.2,51.1z"/>
				<path class="st3" d="M63,5.6c0.7,0.7,1.4,1.3,2,2c5,5.2,9.3,10.9,12.6,17.3c3.3,6.7,5.6,13.7,6.3,21.2c0.1,1.1,0.1,2.2,0.2,3.3
					c0,0.2,0,0.3,0,0.6c-0.2,0-0.3-0.1-0.3-0.1c-1.7-0.7-3.3-1.7-4.7-2.9c-3.3-3-6.2-6.5-8.5-10.4c-2.4-3.8-4.3-7.9-5.8-12.1
					c-1.8-5.4-2.5-10.9-2.2-16.6c0-0.7,0.2-1.4,0.3-2.1C62.9,5.7,63,5.7,63,5.6z"/>
				<path class="st6" d="M99.8,49.3c-0.2-1-0.3-1.9-0.5-2.9c-1.9-10.2-5-19.9-10.4-28.8c-2-3.4-4.4-6.6-7.1-9.4
					c-0.1-0.1-0.3-0.3-0.4-0.4c0,0,0-0.1-0.1-0.3c0.3,0.1,0.4,0.1,0.6,0.2c3.9,1.8,7.5,3.9,10.8,6.6c8.1,6.3,14,14.3,17.7,23.9
					c0.7,1.8,1.2,3.8,1.8,5.7c0.1,0.4,0,0.6-0.4,0.8c-3.7,1.9-7.5,3.4-11.5,4.6c-0.1,0-0.2,0.1-0.3,0.1C100,49.3,100,49.3,99.8,49.3
					z"/>
				<path class="st7" d="M7.4,66.5c-0.2-1-0.4-2-0.5-3c-0.4-3.1-0.7-6.2-0.6-9.3c0-0.4,0.1-0.6,0.4-0.8c5.8-4,12-7.1,18.7-9.4
					c2.8-0.9,5.7-1.5,8.7-1.7c2.2-0.2,4.4-0.3,6.7-0.4c2.5-0.1,5,0.3,7.4,0.6c0.1,0,0.1,0,0.2,0c1.1-0.1,1.9,0.5,2.7,1.2
					c1.3,1.2,2.5,2.3,3.5,3.7c0.1,0.1,0.2,0.3,0.3,0.5c-0.8-0.1-1.4-0.2-2.1-0.3c-2.2-0.1-4.3-0.2-6.4-0.1c-2.9,0.1-5.7,0.5-8.5,1.2
					c-7.7,1.8-14.8,5-21.2,9.7c-3.2,2.3-6.1,4.8-8.8,7.7c-0.1,0.1-0.2,0.3-0.3,0.4C7.5,66.5,7.5,66.5,7.4,66.5z"/>
				<path class="st8" d="M55,97.7c-0.8,0.4-1.4,0.8-2.2,1.2c-4.5,2.4-9.1,4.4-13.9,6c-0.2,0.1-0.6,0.1-0.8,0
					c-3.2-1.5-6.3-3.2-9.1-5.2c-0.3-0.2-0.4-0.4-0.3-0.8c0.8-2.9,1.8-5.7,3.1-8.5c1.1-2.4,2.3-4.7,3.4-7c0.2-0.5,0.5-0.7,1.1-0.7
					c2.1,0,4.3,0,6.4-0.1c0.9,0,1.9-0.2,2.8-0.3c0.3,0,0.4,0,0.5,0.3c1.3,2.5,2.6,4.9,4,7.4c1.1,1.8,2.2,3.7,3.3,5.5
					c0.4,0.7,0.9,1.3,1.4,1.9C54.9,97.5,54.9,97.5,55,97.7z"/>
				<path class="st5" d="M114,56.7c-0.2,2.2-0.3,4.4-0.5,6.6c-0.6,6.1-2.5,11.9-5.2,17.5c-0.3,0.5-0.3,0.5-0.8,0.3
					c-2.2-1.1-4.5-2.1-6.9-2.8c-0.3-0.1-0.4-0.2-0.4-0.5c0.1-1,0.2-2,0.3-3c0.1-1,0.2-2,0.2-3c0.2-4,0.2-8,0-12.1
					c-0.2-2.8-0.5-5.5-0.7-8.3c0-0.3,0.1-0.4,0.4-0.5c2.8-0.8,5.5-1.8,8.1-2.9c1.3-0.6,2.5-1.2,3.7-1.8c0.3-0.2,0.5-0.1,0.5,0.3
					c0.5,2.7,0.9,5.3,1,8C113.9,55.2,113.9,56,114,56.7C114,56.7,114,56.7,114,56.7z"/>
				<path class="st9" d="M42.8,5.6C42.9,6,43,6.5,43.1,6.9c1,3.8,2.6,7.3,4.5,10.7c2.9,5.3,6.5,10.1,10.5,14.6
					c4.2,4.7,8.7,8.9,13.7,12.7c0.4,0.3,0.8,0.6,1.1,0.9c-0.1,0-0.2,0-0.3,0c-3.6-0.8-7.1-1.8-10.4-3.5C57.9,40,54.1,37,51.1,33
					c-1.9-2.5-4.3-4.6-6.9-6.5c-1.5-1.1-3-2.3-4.6-3.3c-1.2-0.8-2.5-1.3-3.8-1.8c-0.3-0.1-0.4-0.2-0.4-0.5c0.1-2.1,0.2-4.3,0.3-6.4
					c0.1-2.1,0.5-4.2,1-6.2c0-0.2,0.2-0.4,0.3-0.4c1.8-0.7,3.6-1.4,5.4-2.2C42.6,5.6,42.6,5.6,42.8,5.6z"/>
				<path class="st9" d="M47.1,82.1c1.3-0.2,2.4-0.4,3.6-0.6c4.9-0.8,9.5-2.3,13.9-4.8c1.5-0.8,3-1.7,4.5-2.5c0.3-0.2,0.6-0.3,1-0.3
					c2.6,0.1,5.3,0.3,7.9,0.4c0.1,0,0.2,0,0.3,0.1c-0.1,0.2-0.1,0.3-0.2,0.5c-2.8,5-6.2,9.4-10.3,13.3c-3.4,3.2-7.1,6-11,8.5
					c-0.4,0.2-0.6,0.2-0.9-0.1c-1.5-1.4-2.4-3.2-3.4-4.9c-1.3-2.2-2.4-4.5-3.6-6.7c-0.4-0.8-0.9-1.6-1.4-2.4
					C47.2,82.4,47.2,82.3,47.1,82.1z"/>
				<path class="st6" d="M6.3,52.2c0.1-1.1,0.1-2.1,0.3-3c0.2-1.5,0.5-2.9,0.7-4.4c0-0.3,0.2-0.5,0.3-0.7c0.1-0.2,0.1-0.4,0.2-0.6
					c0-0.3,0-0.7,0.1-0.9c0.7-2.3,1.4-4.5,2.2-6.8c0.1-0.4,0.3-0.9,0.5-1.3c0.1-0.2,0.2-0.3,0.4-0.2c0.1,0.1,0.3,0.1,0.5,0
					c2.1-0.4,4.2-0.3,6.4-0.1c2.5,0.2,5,0.3,7.5,0.4c2.9,0.2,5.8,0.9,8.6,1.6c4.1,1.1,8,2.4,11.9,4.2c0.1,0.1,0.3,0.1,0.4,0.2
					c0,0,0,0.1,0,0.1c-0.5,0-1,0-1.5-0.1c-1.9-0.3-3.9-0.3-5.9-0.1c-1.6,0.1-3.2,0.2-4.7,0.4c-2.3,0.2-4.5,0.6-6.7,1.2
					c-3.3,0.9-6.4,2.2-9.5,3.6c-4,1.8-7.8,3.9-11.3,6.4C6.5,52.1,6.5,52.1,6.3,52.2z"/>
				<path class="st5" d="M65.2,62.5c-0.4-0.1-0.8-0.2-1.2-0.3c-3.3-0.9-6.7-1.3-10-1.4c-2.3,0-4.5,0.3-6.8,0.5
					c-2.4,0.2-4.7,0.8-6.9,1.7c-0.3,0.1-0.5,0.1-0.6-0.3c-0.7-2.4-1.4-4.8-2.1-7.2c-0.4-1.4-0.8-2.8-1.2-4.1
					c-0.2-0.5-0.1-0.5,0.4-0.7c5.1-1.3,10.3-1.8,15.5-1.4c0.8,0.1,1.5,0.1,2.3,0.2c0.3,0,0.7-0.2,1.1-0.3c3,4.4,5.9,9.1,9.6,13.1
					C65.3,62.4,65.3,62.4,65.2,62.5z"/>
				<path class="st3" d="M75.5,67.8c-0.1,0.1-0.2,0.3-0.3,0.3c-1.8,1.4-3.6,2.8-5.5,3.9c-0.2,0.1-0.5,0.2-0.8,0.2
					c-5.6,0-11,0.7-16.5,1.9c-4.1,0.9-8.1,1.9-12.2,2.8c-0.4,0.1-0.8,0.2-1.3,0.4c0.2-0.3,0.2-0.4,0.3-0.5
					c2.8-4.2,6.3-7.6,10.4-10.4c1.5-1,3.1-1.9,4.7-2.8c0.4-0.2,0.9-0.3,1.3-0.5c0.1-0.1,0.3-0.1,0.4-0.2c0.3-0.5,0.6-0.3,1-0.3
					c3.4,0.3,6.8,1.1,10,2.1c0.8,0.3,1.7,0.6,2.5,1c1.7,0.8,3.5,1.4,5.4,1.9C75.1,67.6,75.2,67.7,75.5,67.8
					C75.4,67.7,75.4,67.7,75.5,67.8z"/>
				<path class="st4" d="M99.8,62.5c0,1.9,0.1,3.8,0,5.7c-0.1,2.6-0.3,5.1-0.5,7.7c0,0.4-0.1,0.8-0.1,1.2c0,0.6-0.1,0.6-0.6,0.4
					c-2.9-0.9-5.8-1.9-8.8-2.7c-2.9-0.8-5.9-1.4-8.9-1.8c-0.4,0-0.4-0.2-0.2-0.5c0.7-1.8,1.5-3.5,2.2-5.3c0.1-0.2,0.3-0.4,0.4-0.5
					c2.6-1.1,4.8-2.7,7.2-4.3c0.9-0.6,1.9-1.2,3.1-1.4c0.3-0.1,0.6-0.1,1-0.1c1.3,0,2.5,0,3.8,0c0.1,0,0.2,0,0.3,0
					C99.7,61.3,99.8,61.5,99.8,62.5z"/>
				<path class="st6" d="M73,43.1c-0.2-0.2-0.4-0.3-0.6-0.5c-5.9-5.2-10.8-11.2-14.6-18.1c-1.9-3.4-3.3-7-4.1-10.9
					c-0.6-2.6-0.8-5.3-0.5-8c0.1-0.7,0.3-1.5,0.4-2.2c0-0.1,0.2-0.3,0.3-0.3C55.9,3,57.8,3,59.7,2.9c0.2,0,0.5,0.1,0.7,0.3
					c0.5,0.4,1,0.9,1.5,1.3C62,4.6,62,4.9,62,5c-1.1,4.4-1,8.7-0.2,13.1c1,5.4,2.7,10.5,5.2,15.4c1.6,3.2,3.6,6.3,5.8,9.1
					c0.1,0.1,0.2,0.2,0.2,0.3C73,42.9,73,43,73,43.1z"/>
				<path class="st3" d="M52.4,62.6c-0.5,0.3-1,0.6-1.4,0.9c-3.3,2.1-6.8,4.1-10,6.4c-4.4,3-8.2,6.6-11.4,10.9
					C29.4,80.9,29.2,81,29,81c-1.6-0.1-3.3-0.2-4.9-0.4c-0.9-0.1-1.7-0.4-2.5-0.6c-0.1,0-0.2-0.1-0.3-0.2c0.4-0.5,0.8-1,1.2-1.5
					c0.7-0.9,1.3-1.8,2-2.7c1.7-2.3,3.8-4.1,6.1-5.7c3.9-2.7,8.2-4.8,12.8-6.2c2-0.7,4.2-0.8,6.3-1c0.9-0.1,1.8-0.2,2.7-0.2
					C52.3,62.5,52.3,62.5,52.4,62.6z"/>
				<path class="st10" d="M62.1,34.1c-0.7-0.8-1.4-1.5-2.1-2.3c-4.2-4.6-7.9-9.6-11.1-14.9c-2.1-3.5-3.9-7.2-5-11.1
					c-0.2-0.6-0.2-0.6,0.4-0.7c2.7-0.8,5.4-1.4,8.2-1.8c0.1,0,0.3,0,0.4,0c-0.2,0.9-0.4,1.7-0.5,2.6c-0.1,1.4-0.3,2.8-0.2,4.1
					c0.2,4.8,1.7,9.2,3.7,13.5c1.7,3.6,3.7,6.9,6,10.1C62,33.8,62.1,33.9,62.1,34.1C62.1,34.1,62.1,34.1,62.1,34.1z"/>
				<path class="st3" d="M36.7,81c0.4-0.7,0.7-1.4,1.7-1.7c3.5-1.1,7.1-2,10.7-2.7c3.4-0.7,6.9-1.4,10.4-1.9
					c2.1-0.3,4.2-0.4,6.3-0.6c0.1,0,0.2,0,0.4,0.1c-0.1,0.1-0.2,0.2-0.3,0.2c-2.5,1.4-5.1,2.9-7.9,3.8c-1.8,0.6-3.6,1.1-5.4,1.5
					c-2.8,0.6-5.6,1.1-8.5,1.3c-2.4,0.3-4.9,0.2-7.3,0.2C36.7,81.1,36.7,81,36.7,81z"/>
				<path class="st3" d="M97.8,59.6c-0.2,0-0.4-0.1-0.7,0c-1.3,0.1-2.6,0.2-3.8,0.3c-1.2,0.1-2.3,0.7-3.3,1.3
					c-1.4,0.9-2.7,1.8-4.1,2.7c-0.6,0.4-1.3,0.7-2.1,1.2c0.1-0.3,0.1-0.4,0.1-0.5c1.1-3.8,1.7-7.7,1.8-11.7c0-0.5,0-0.5,0.6-0.4
					c1.6,0.2,3.1,0.8,4.5,1.3c1.8,0.7,3.4,2,4.8,3.4c0.5,0.5,1,1,1.5,1.5c0.3,0.3,0.5,0.6,0.7,0.9C97.8,59.5,97.8,59.6,97.8,59.6z"
					/>
				<path class="st8" d="M35.6,8.6c-0.9,4.1-1,8.1-0.9,12.3c-4-1.1-7.9-2.2-11.8-3.3C24,15.8,33.3,9.2,35.6,8.6z"/>
				<path class="st11" d="M96.8,95.9c1.6-5.4,2.6-10.9,3.3-16.5c0.4,0.2,0.7,0.3,1,0.4c2,0.7,4,1.5,5.9,2.5c0.3,0.2,0.3,0.3,0.2,0.6
					c-2.7,4.8-6,9-10,12.8c-0.1,0-0.1,0.1-0.2,0.1C97,95.9,97,95.9,96.8,95.9z"/>
				<path class="st12" d="M27.2,98.2c-0.2-0.1-0.3-0.3-0.5-0.4c-1-0.8-1.9-1.7-2.9-2.5c-0.2-0.2-0.2-0.4-0.1-0.6
					c1.5-4.2,3.8-8,6.2-11.7c0.2-0.3,0.4-0.4,0.8-0.3c0.8,0,1.7,0,2.5,0c0.2,0,0.3,0,0.5,0C31,87.8,28.7,92.8,27.2,98.2z"/>
				<path class="st4" d="M98.7,51.5c0.4,2.4,0.6,4.8,0.8,7.2c0,0-0.1,0.1-0.1,0.1c-0.2-0.1-0.5-0.2-0.7-0.4c-1.6-1.3-3.1-2.7-4.7-4
					c-0.4-0.3-0.8-0.6-1.2-1c-0.1-0.1-0.2-0.3-0.3-0.4c0.2-0.1,0.3-0.2,0.5-0.3c0.8-0.2,1.6-0.3,2.3-0.4
					C96.4,52.1,97.5,51.8,98.7,51.5z"/>
				<path class="st5" d="M72.1,72.3c0.2-0.2,0.4-0.3,0.5-0.4c1.2-0.9,2.5-1.8,3.6-2.8c0.7-0.7,1.3-1,2.3-0.9c0.7,0.1,1.3-0.2,2-0.3
					c0.2,0,0.4-0.1,0.7-0.2c-0.1,0.2-0.1,0.4-0.2,0.5c-0.6,1.4-1.2,2.8-1.8,4.3c-0.1,0.2-0.2,0.4-0.5,0.3c-2.1-0.2-4.3-0.3-6.4-0.5
					C72.2,72.3,72.2,72.3,72.1,72.3z"/>
				<path class="st10" d="M31.2,81.2c0.1-0.3,0.2-0.4,0.3-0.6c1.3-1.8,2.9-3.3,4.5-4.8c1.5-1.4,3.2-2.7,4.8-4
					c0.1-0.1,0.3-0.1,0.4-0.2c0.2,0.4-0.2,0.6-0.3,0.8c-1.5,1.7-2.8,3.6-4,5.5c-0.7,1-1.3,2-1.9,3.1c-0.1,0.1-0.3,0.3-0.4,0.3
					c-0.8,0.1-1.7,0.1-2.6,0.1C31.7,81.3,31.5,81.2,31.2,81.2z"/>
			</g>
		</g>
	</g>
	<g>
		<circle id="XMLID_2_" class="st13" cx="60.8" cy="55.3" r="52.6"/>
	</g>
</g>
</svg>
